<svg xmlns="http://www.w3.org/2000/svg" viewBox="0 0 750 500"><g id="background-complete--inject-27"><rect x="173.81" y="104.21" width="27.35" height="58.55" style="fill:#ebebeb"></rect><rect x="202.29" y="166.85" width="33.61" height="56.57" style="fill:#ebebeb"></rect><polygon points="240 103.2 271.91 103.2 271.91 51.26 273.05 51.26 273.05 103.2 302.58 103.2 302.58 50.11 240 50.11 240 103.2" style="fill:#ebebeb"></polygon><rect x="173.81" y="166.85" width="27.35" height="56.57" style="fill:#ebebeb"></rect><rect x="273.05" y="166.85" width="29.54" height="56.57" style="fill:#ebebeb"></rect><rect x="202.29" y="104.21" width="33.61" height="58.55" style="fill:#ebebeb"></rect><rect x="273.05" y="104.21" width="29.54" height="58.55" style="fill:#ebebeb"></rect><rect x="173.81" y="224.44" width="27.35" height="50.98" style="fill:#ebebeb"></rect><polygon points="201.16 103.2 201.16 51.26 202.29 51.26 202.29 103.2 235.91 103.2 235.91 50.11 173.81 50.11 173.81 103.2 201.16 103.2" style="fill:#ebebeb"></polygon><rect x="202.29" y="224.44" width="33.61" height="50.98" style="fill:#ebebeb"></rect><rect x="273.05" y="224.44" width="29.54" height="50.98" style="fill:#ebebeb"></rect><rect x="240" y="104.21" width="31.92" height="58.55" style="fill:#ebebeb"></rect><rect x="240" y="224.44" width="31.92" height="50.98" style="fill:#ebebeb"></rect><rect x="240" y="166.85" width="31.92" height="56.57" style="fill:#ebebeb"></rect><rect x="517.28" y="104.21" width="27.35" height="58.55" style="fill:#ebebeb"></rect><rect x="545.77" y="166.85" width="33.61" height="56.57" style="fill:#ebebeb"></rect><polygon points="583.47 103.2 615.39 103.2 615.39 51.26 616.52 51.26 616.52 103.2 646.06 103.2 646.06 50.11 583.47 50.11 583.47 103.2" style="fill:#ebebeb"></polygon><rect x="517.28" y="166.85" width="27.35" height="56.57" style="fill:#ebebeb"></rect><rect x="616.52" y="166.85" width="29.54" height="56.57" style="fill:#ebebeb"></rect><rect x="545.77" y="104.21" width="33.61" height="58.55" style="fill:#ebebeb"></rect><rect x="616.52" y="104.21" width="29.54" height="58.55" style="fill:#ebebeb"></rect><rect x="517.28" y="224.44" width="27.35" height="50.98" style="fill:#ebebeb"></rect><polygon points="544.63 103.2 544.63 51.26 545.77 51.26 545.77 103.2 579.38 103.2 579.38 50.11 517.28 50.11 517.28 103.2 544.63 103.2" style="fill:#ebebeb"></polygon><rect x="545.77" y="224.44" width="33.61" height="50.98" style="fill:#ebebeb"></rect><rect x="616.52" y="224.44" width="29.54" height="50.98" style="fill:#ebebeb"></rect><rect x="583.47" y="104.21" width="31.92" height="58.55" style="fill:#ebebeb"></rect><rect x="583.47" y="224.44" width="31.92" height="50.98" style="fill:#ebebeb"></rect><rect x="583.47" y="166.85" width="31.92" height="56.57" style="fill:#ebebeb"></rect><rect x="108.7" y="116.23" width="52.51" height="34.53" transform="translate(268.44 -1.47) rotate(90)" style="fill:#e0e0e0"></rect><rect x="110.6" y="117.69" width="48.83" height="31.57" transform="translate(268.49 -1.55) rotate(90)" style="fill:#fafafa"></rect><rect x="126.99" y="129.13" width="15.93" height="8.69" transform="translate(268.43 -1.48) rotate(90)" style="fill:#e0e0e0"></rect><rect x="673.63" y="169.62" width="44.19" height="29.06" style="fill:#e0e0e0"></rect><rect x="675.17" y="170.8" width="41.1" height="26.57" style="fill:#fafafa"></rect><rect x="689.01" y="180.49" width="13.41" height="7.31" style="fill:#e0e0e0"></rect><rect x="659.89" y="84.17" width="72.06" height="47.38" transform="translate(803.78 -588.06) rotate(90)" style="fill:#e0e0e0"></rect><rect x="662.51" y="86.18" width="67.01" height="43.32" transform="translate(803.85 -588.17) rotate(90)" style="fill:#fafafa"></rect><rect x="684.99" y="101.88" width="21.86" height="11.92" transform="translate(803.76 -588.08) rotate(90)" style="fill:#e0e0e0"></rect></g><g id="Floor--inject-27"><path d="M726.56,462.17c0,.14-157.41.26-351.54.26s-351.58-.12-351.58-.26,157.38-.26,351.58-.26S726.56,462,726.56,462.17Z" style="fill:#263238"></path></g><g id="character-4--inject-27"><path d="M650.74,437.31l-3.68-5.16,14.15-9.91,5.86,7.95-.81.7c-3.63,3.07-18.69,15.34-21.79,16.5C641,448.69,650.74,437.31,650.74,437.31Z" style="fill:#00458B"></path><g style="opacity:0.5"><path d="M662,433.85a5.89,5.89,0,0,1-.57-4.21,5.12,5.12,0,0,1,2.68-3.45l2.78,3.82Z" style="fill:#fff"></path></g><g style="opacity:0.5"><path d="M646.14,443.07s-3.22,4.24-2.21,4.51,16.68-11.57,23.14-17.39l-.25-.28-18.16,14S647,442.5,646.14,443.07Z" style="fill:#fff"></path></g><path d="M667,429.74s-.07.08-.21.2l-.65.56-2.42,2c-2,1.66-4.91,3.93-8.13,6.36s-6.17,4.58-8.33,6.1c-1,.7-1.87,1.3-2.57,1.79l-.71.47a1,1,0,0,1-.25.15,1.15,1.15,0,0,1,.23-.18l.68-.51c.69-.5,1.54-1.11,2.53-1.84,2.14-1.55,5.09-3.71,8.3-6.14s6.09-4.68,8.16-6.32l2.46-1.94.67-.52Z" style="fill:#263238"></path><path d="M648.82,444.09a6.28,6.28,0,0,0-1.35-.82,6.55,6.55,0,0,0-1.55-.29,2.28,2.28,0,0,1,1.63.1A2.23,2.23,0,0,1,648.82,444.09Z" style="fill:#263238"></path><path d="M651.35,439c0,.06-.39,0-.82-.19s-.77-.32-.75-.38a1.8,1.8,0,0,1,.82.19C651,438.79,651.37,439,651.35,439Z" style="fill:#263238"></path><path d="M652,437.6a1.44,1.44,0,0,1-.73,0c-.39,0-.71-.1-.7-.16s.33-.08.72-.05S652,437.54,652,437.6Z" style="fill:#263238"></path><path d="M651.77,435.8s-.26.32-.65.63a2.24,2.24,0,0,1-.77.47s.25-.33.65-.63S651.73,435.75,651.77,435.8Z" style="fill:#263238"></path><path d="M651.33,434.72s-.18.45-.62.83a1.79,1.79,0,0,1-.91.52c0-.06.36-.3.77-.67A6.5,6.5,0,0,1,651.33,434.72Z" style="fill:#263238"></path><path d="M650,438.19a3.26,3.26,0,0,1-.89.66,5.57,5.57,0,0,1-1.09.51,3.4,3.4,0,0,1-.7.19.6.6,0,0,1-.42-.1.42.42,0,0,1-.13-.45,2,2,0,0,1,2.35-1.05,1.84,1.84,0,0,1,.72.36c.15.12.21.21.2.22a2.76,2.76,0,0,0-1-.44,2.07,2.07,0,0,0-1.11.09,1.78,1.78,0,0,0-1,.87c-.06.2.11.32.34.3a3.89,3.89,0,0,0,.65-.17,8.21,8.21,0,0,0,1.08-.45C649.64,438.42,650,438.16,650,438.19Z" style="fill:#263238"></path><path d="M649.8,438.41s-.3-.11-.55-.53a1.58,1.58,0,0,1-.24-.81,1.1,1.1,0,0,1,.4-1,.42.42,0,0,1,.57.19,1.2,1.2,0,0,1,.15.5,3.81,3.81,0,0,1,0,.84,1.69,1.69,0,0,1-.24.73,5.86,5.86,0,0,1,.09-.75,3.66,3.66,0,0,0,0-.8c0-.27-.18-.66-.44-.53a1,1,0,0,0-.3.8,1.69,1.69,0,0,0,.18.75A3.8,3.8,0,0,0,649.8,438.41Z" style="fill:#263238"></path><path d="M664,426.27s-.42.26-1,.8a5.62,5.62,0,0,0-1.53,2.57,5.38,5.38,0,0,0,.06,3c.23.73.5,1.14.47,1.16a1.24,1.24,0,0,1-.21-.28,4.31,4.31,0,0,1-.4-.83,5.21,5.21,0,0,1-.12-3.06,5.36,5.36,0,0,1,1.64-2.62,3.66,3.66,0,0,1,.77-.55A1.2,1.2,0,0,1,664,426.27Z" style="fill:#263238"></path><path d="M659.3,433.84a10.13,10.13,0,0,1-1.86,1.71,9.53,9.53,0,0,1-2.13,1.36c0-.05.91-.67,2-1.52S659.26,433.8,659.3,433.84Z" style="fill:#263238"></path><path d="M662,431.81c.06,0,.07.24.13.51s.15.48.1.52-.23-.16-.3-.48S661.93,431.8,662,431.81Z" style="fill:#263238"></path><path d="M662.06,429.8c.06,0,.08.22,0,.46s-.11.45-.16.44-.08-.21,0-.46S662,429.8,662.06,429.8Z" style="fill:#263238"></path><path d="M663.09,428.14c0,.05-.16.19-.31.41s-.22.44-.27.44-.09-.28.1-.55S663.07,428.09,663.09,428.14Z" style="fill:#263238"></path><path d="M663.92,427.09c.05,0,0,.16-.06.29s-.19.21-.24.18,0-.16.06-.28S663.87,427.07,663.92,427.09Z" style="fill:#263238"></path><g style="opacity:0.30000000000000004"><polygon points="663.57 425.43 649.26 435.3 648.85 434.74 662.75 424.29 663.57 425.43"></polygon></g><polygon points="629.99 361.43 664.92 423.61 646.25 436.27 615.39 381.48 620.59 361.43 629.99 361.43" style="fill:#263238"></polygon><path d="M717.86,351.47l.19-48.09c0-4,0-8.18-2.09-11.58s-5.83-5.42-9.7-6.21-7.88-.5-11.82-.16L674,350c-6.42,1.88-12.37,4.65-16.85,9.28a14.23,14.23,0,0,0-4.18,7.47,7.73,7.73,0,0,0,3.06,7.61,6.69,6.69,0,0,0,1.12.6c-.8,6.13-12.47,87.34-12.47,87.34l4,0,10.36-58.4,21.53-9.78L704,407.27l9.4,55.29,4,0s-11.63-86-11.78-87.79h0a21.21,21.21,0,0,0,4.09-1.61C717,369.33,718,361.32,717.86,351.47Zm-58.43,50.39L662.59,384l16.09,9Zm3.48-19.65,1.12-6.29,27.28.15c2.43,0,4.91,0,7.36-.15l1.26,7.39-19.24,8.81Zm19.7,11,17.64-8,3.35,19.72Z" style="fill:#455a64"></path><path d="M688.71,280.69h0c-5,0-9.06-3.23-9.13-18.27,0-3,.09-5.64.09-5.64s-7.14-.65-7.67-7.58-.13-23-.13-23h0a24.75,24.75,0,0,1,24.72,1.63l1.1.73-.34,34C697.31,267.38,693.58,280.69,688.71,280.69Z" style="fill:#b78876"></path><path d="M679.65,256.68a16.67,16.67,0,0,0,9.06-3.13s-1.87,5.12-9,4.93Z" style="fill:#aa6550"></path><path d="M673.57,237.38a1,1,0,0,0,.95,1,.94.94,0,0,0,1-.88,1,1,0,0,0-1-1A.94.94,0,0,0,673.57,237.38Z" style="fill:#263238"></path><path d="M673.35,236.29c.12.12.87-.42,1.94-.42s1.85.53,2,.4-.07-.29-.41-.53a2.74,2.74,0,0,0-1.58-.47,2.65,2.65,0,0,0-1.54.48C673.4,236,673.29,236.23,673.35,236.29Z" style="fill:#263238"></path><path d="M684,237.62a1,1,0,0,0,1,1,.93.93,0,0,0,1-.87,1,1,0,0,0-1-1A.93.93,0,0,0,684,237.62Z" style="fill:#263238"></path><path d="M683.84,236.48c.12.13.87-.42,1.94-.41s1.85.52,2,.39-.06-.28-.41-.52a2.68,2.68,0,0,0-1.57-.48,2.58,2.58,0,0,0-1.54.49C683.89,236.2,683.78,236.43,683.84,236.48Z" style="fill:#263238"></path><path d="M680,244.23a7.21,7.21,0,0,0-1.74-.3c-.27,0-.53-.08-.57-.27a1.3,1.3,0,0,1,.18-.79l.8-2a33.78,33.78,0,0,0,1.81-5.32,35,35,0,0,0-2.24,5.17c-.27.71-.52,1.39-.77,2a1.53,1.53,0,0,0-.14,1.05.67.67,0,0,0,.45.39,2,2,0,0,0,.46.06A6.85,6.85,0,0,0,680,244.23Z" style="fill:#263238"></path><path d="M683.11,245c-.18,0-.18,1.12-1.17,1.93s-2.23.68-2.23.84.27.22.79.23a2.89,2.89,0,0,0,1.87-.64,2.45,2.45,0,0,0,.9-1.61C683.31,245.23,683.18,245,683.11,245Z" style="fill:#263238"></path><path d="M683.56,232.39c.11.28,1.17.14,2.42.29s2.27.48,2.43.23-.1-.39-.51-.66a4.29,4.29,0,0,0-3.69-.4C683.75,232,683.52,232.25,683.56,232.39Z" style="fill:#263238"></path><path d="M673.74,233.26c.19.24.93,0,1.81,0s1.63.16,1.8-.09,0-.36-.37-.58a2.53,2.53,0,0,0-1.46-.39,2.46,2.46,0,0,0-1.44.48C673.76,232.9,673.66,233.15,673.74,233.26Z" style="fill:#263238"></path><path d="M670.27,227.09c3.07,4.24,10,3,14.38.2a7.47,7.47,0,0,0,8.11,2.51c0,1.75-.37,3.48-.44,5.22a6.72,6.72,0,0,0,1.42,4.9c1.19,1.28,3.46,1.64,4.66.37a4.37,4.37,0,0,0,.76-3.64,11.74,11.74,0,0,1-.31-3.81c.34-1.86,2.38-.52,2.45-4.65.08-5.46-4.66-5.33-4.66-5.33a9.5,9.5,0,0,0-1.83-3.31,5.73,5.73,0,0,0-2-1.68,2,2,0,0,0-2.38.43,13.13,13.13,0,0,0-6-2.94c-2.22-.31-4.76.66-5.61,2.73-2.13-.8-5.55-.74-7.18.86s-3.5,6-1.46,8.14" style="fill:#263238"></path><path d="M695.87,236.23c.13,0,4.47-.61,4.06,4.42s-5.45,3-5.45,2.81S695.87,236.23,695.87,236.23Z" style="fill:#b78876"></path><path d="M696.19,241.82s.09.07.23.15a1,1,0,0,0,.67.07,2.18,2.18,0,0,0,1.18-1.87,2.79,2.79,0,0,0-.15-1.27,1,1,0,0,0-.61-.72.46.46,0,0,0-.55.19,1.1,1.1,0,0,0-.08.25s-.11-.09,0-.3a.57.57,0,0,1,.23-.3.7.7,0,0,1,.5-.09,1.25,1.25,0,0,1,.87.86,2.88,2.88,0,0,1,.2,1.42,2.29,2.29,0,0,1-1.48,2.07,1,1,0,0,1-.81-.2C696.19,242,696.18,241.83,696.19,241.82Z" style="fill:#aa6550"></path><path d="M581.39,454.69l1.77-5.75,16,3.48-1.92,9.45-1-.13c-4.6-.63-23.35-3.49-26.22-5C566.78,455.11,581.39,454.69,581.39,454.69Z" style="fill:#00458B"></path><g style="opacity:0.5"><path d="M591.28,460.6a5.75,5.75,0,0,1,2.68-3.17,5,5,0,0,1,4.25-.32l-.94,4.52Z" style="fill:#fff"></path></g><g style="opacity:0.5"><path d="M574.21,455.13s-5.18.45-4.72,1.36,19.3,4.51,27.75,5.38l0-.37-22-4S575.16,455.36,574.21,455.13Z" style="fill:#fff"></path></g><path d="M597.54,461.54l-.29,0-.82-.11-3-.45c-2.55-.39-6.07-1-9.94-1.71s-7.36-1.48-9.87-2.05l-3-.69-.81-.2-.27-.09.28,0,.82.16,3,.63c2.52.54,6,1.26,9.88,2s7.37,1.35,9.92,1.78l3,.5.82.15A1,1,0,0,1,597.54,461.54Z" style="fill:#263238"></path><path d="M575.23,457.75a7.17,7.17,0,0,0-.3-1.51,7.05,7.05,0,0,0-.8-1.32,2.2,2.2,0,0,1,1,1.25A2.24,2.24,0,0,1,575.23,457.75Z" style="fill:#263238"></path><path d="M580.56,456.26c-.06,0-.24-.31-.41-.72a1.75,1.75,0,0,1-.21-.8s.23.31.4.72A1.81,1.81,0,0,1,580.56,456.26Z" style="fill:#263238"></path><path d="M582,455.82s-.27-.19-.5-.49-.4-.58-.35-.62.27.19.51.5S582.07,455.78,582,455.82Z" style="fill:#263238"></path><path d="M583.16,454.45c0,.06-.4,0-.88-.05s-.86-.2-.85-.26a2,2,0,0,1,.88.06A2.21,2.21,0,0,1,583.16,454.45Z" style="fill:#263238"></path><path d="M583.66,453.43a1.76,1.76,0,0,1-1,.09,1.6,1.6,0,0,1-1-.32,81.14,81.14,0,0,0,2,.23Z" style="fill:#263238"></path><path d="M580.27,454.74a3.32,3.32,0,0,1-1.06-.21,6.62,6.62,0,0,1-1.09-.46,3.65,3.65,0,0,1-.59-.38.59.59,0,0,1-.2-.38.39.39,0,0,1,.24-.38,2,2,0,0,1,2.3,1,2,2,0,0,1,.21.76c0,.19,0,.29,0,.29a3,3,0,0,0-.31-1,2,2,0,0,0-.8-.75,1.72,1.72,0,0,0-1.28-.16c-.19.09-.16.3,0,.45a3.38,3.38,0,0,0,.54.36,9.27,9.27,0,0,0,1,.49C579.87,454.63,580.27,454.71,580.27,454.74Z" style="fill:#263238"></path><path d="M580,454.74a1,1,0,0,1,0-.75,1.67,1.67,0,0,1,.43-.7,1.05,1.05,0,0,1,1-.36.42.42,0,0,1,.24.54,1.09,1.09,0,0,1-.27.43,3.19,3.19,0,0,1-.62.53,1.54,1.54,0,0,1-.69.31s.25-.15.61-.42a4.6,4.6,0,0,0,.56-.54c.19-.19.36-.57.1-.67a1,1,0,0,0-.78.31,1.7,1.7,0,0,0-.43.62A4.36,4.36,0,0,0,580,454.74Z" style="fill:#263238"></path><path d="M598.05,457.05s-.47-.13-1.23-.19a5.44,5.44,0,0,0-2.86.57,5.26,5.26,0,0,0-2.1,2c-.39.65-.5,1.11-.54,1.1a1.34,1.34,0,0,1,.06-.33,4.76,4.76,0,0,1,.35-.84,5.09,5.09,0,0,1,2.13-2.09,5.23,5.23,0,0,1,3-.53,4.89,4.89,0,0,1,.91.2A1.35,1.35,0,0,1,598.05,457.05Z" style="fill:#263238"></path><path d="M589.5,458.62a9.38,9.38,0,0,1-2.45-.22,9.83,9.83,0,0,1-2.38-.65c0-.06,1.09.21,2.42.45S589.51,458.57,589.5,458.62Z" style="fill:#263238"></path><path d="M592.74,459.24s-.13.2-.29.42-.25.43-.31.41,0-.27.15-.52S592.71,459.19,592.74,459.24Z" style="fill:#263238"></path><path d="M594.24,458s-.11.2-.31.33-.39.21-.42.17.1-.19.31-.33S594.21,457.94,594.24,458Z" style="fill:#263238"></path><path d="M596.11,457.64c0,.05-.24,0-.49,0s-.46.13-.5.09.15-.24.47-.29S596.14,457.59,596.11,457.64Z" style="fill:#263238"></path><path d="M597.42,457.55c0,.06-.1.12-.25.15s-.27,0-.28-.05.1-.12.24-.15S597.41,457.5,597.42,457.55Z" style="fill:#263238"></path><path d="M624.86,307.17a15.93,15.93,0,0,0-3.29-3.13c-.46-.16-8.71-3.6-8.87-3.22s-1.14,2.27.54,3.16l1.3.44-4.74.38s-5.28,3.9-5.2,4.74.76,1.38,1.22,1-1.22,2.68-1.22,2.68,0,1.3.69,1.07a6.43,6.43,0,0,0,1.75-1.45s-1,1.6-.68,1.91,1.83.38,2,0,.39-1.07.39-1.07l.91.08V315l14,.43Z" style="fill:#aa6550"></path><path d="M694.67,341s4.81,17.13-6.07,20.56-67.48,5.23-67.48,5.23L599.7,455.27l-18-4.17L597.6,358a15.76,15.76,0,0,1,12.76-12.79c16.78-3,47.19-8.51,47.6-9.13a42.4,42.4,0,0,0,1.91-5.27Z" style="fill:#263238"></path><path d="M656,365.19a2.78,2.78,0,0,1-.66.06l-1.92.1-7.23.3-25.34.88.23-.18c-1.68,6.87-3.47,14.48-5.34,22.49-3.64,15.69-6.88,29.9-9.35,40.15-1.23,5.13-2.26,9.28-3,12.14-.36,1.4-.65,2.5-.85,3.29l-.24.85c-.05.19-.09.29-.1.28s0-.1,0-.29.11-.51.18-.87c.19-.79.44-1.9.76-3.31.67-2.91,1.63-7.06,2.82-12.17,2.36-10.31,5.61-24.51,9.21-40.18,1.86-8,3.67-15.63,5.38-22.49l0-.18h.18l25.34-.69,7.24-.16,1.92,0A4.69,4.69,0,0,1,656,365.19Z" style="fill:#455a64"></path><path d="M649.8,338a.75.75,0,0,1-.24.08l-.72.17c-.63.15-1.56.36-2.77.61-2.41.5-5.91,1.17-10.24,1.95s-9.5,1.67-15.21,2.77c-2.85.55-5.84,1.22-9,1.78s-6.34,1.41-8.9,3.53a10.83,10.83,0,0,0-2.9,3.85,24.79,24.79,0,0,0-1.55,4.51,87.28,87.28,0,0,0-1.76,8.93c-.9,5.74-1.71,10.92-2.39,15.28s-1.21,7.82-1.59,10.3l-.45,2.8c0,.29-.1.53-.13.72a1.57,1.57,0,0,1-.06.25.69.69,0,0,1,0-.25l.07-.74c.09-.68.21-1.62.36-2.81.34-2.48.83-6,1.43-10.33s1.37-9.54,2.27-15.29a88.62,88.62,0,0,1,1.74-9,26.18,26.18,0,0,1,1.58-4.61,11.32,11.32,0,0,1,3-4c2.68-2.22,6-3,9.13-3.63s6.09-1.21,9-1.75c5.72-1.08,10.9-1.92,15.24-2.66s7.84-1.35,10.26-1.79l2.79-.51.73-.12A.79.79,0,0,1,649.8,338Z" style="fill:#455a64"></path><polygon points="679.09 268.56 674.82 273.62 657.73 303.52 624.4 306.82 623.67 316.46 662.06 320.09 683.49 281.31 679.09 268.56" style="fill:#00458B"></polygon><g style="opacity:0.2"><polygon points="679.09 268.56 674.82 273.62 657.73 303.52 624.4 306.82 623.67 316.46 662.06 320.09 683.49 281.31 679.09 268.56"></polygon></g><path d="M675.71,283.15,679,270.67l.07-4.07,18.55-8.42,3.56,4.43-.43.23c1.46,1.53,12.26,13.2,11.62,21.81-.58,7.75-16.92,56.62-16.92,56.62l-37.22-10.88Z" style="fill:#00458B"></path><path d="M679.09,266.6s.13.84.29,2.29.28,3.54.8,6l.06.26.23-.14,6.63-3.82c3.83-2.22,7.28-4.25,9.76-5.74l2.94-1.78a7.92,7.92,0,0,0,1-.7,6.5,6.5,0,0,0-1.13.55l-3,1.67c-2.53,1.42-6,3.4-9.83,5.62l-6.61,3.87.29.12c-.55-2.41-.69-4.51-.95-5.95-.12-.73-.24-1.3-.33-1.68A2.29,2.29,0,0,0,679.09,266.6Z" style="fill:#263238"></path><path d="M709,293.79c0,.48-33.62,33-33.62,33L630,317.87l1.46-9.69,31,.84a9.15,9.15,0,0,0,8.15-3.69c6.66-8.64,21.08-27.37,21.45-27.87S709,293.79,709,293.79Z" style="fill:#00458B"></path><path d="M631.45,308.18s0,.19-.11.61l-.3,1.84c-.26,1.65-.64,4.08-1.14,7.23V318H630l36.25,7,3,.57a13.56,13.56,0,0,0,3.13.28,12.67,12.67,0,0,0,6.18-1.85,12.26,12.26,0,0,0,2.6-2.12c.77-.83,1.48-1.68,2.23-2.53l4.54-5.22,19.41-22.33,0,0v0c0-.11.09-.23.13-.35a14.75,14.75,0,0,0,1.1-5.23,9.72,9.72,0,0,0-1.3-5.12,10.79,10.79,0,0,0-3.74-3.62,11.47,11.47,0,0,0-4.86-1.61,9.24,9.24,0,0,0-4.95.88,12.88,12.88,0,0,0-3.86,3.07,38.54,38.54,0,0,0-2.92,3.81l-2.72,3.8c-3.61,5-7.19,9.59-10.65,13.83L671,304.28a27.68,27.68,0,0,1-2.59,2.86,6,6,0,0,1-3.31,1.36,26.39,26.39,0,0,1-3.55.09l-22.08-.34-6-.07h-2.06l.54,0,1.57.05,6,.15,22,.5a25.55,25.55,0,0,0,3.59-.08,6.35,6.35,0,0,0,3.49-1.42,25.77,25.77,0,0,0,2.63-2.89c.85-1,1.71-2.05,2.58-3.11,3.48-4.23,7.07-8.85,10.7-13.83q1.35-1.87,2.72-3.79a42,42,0,0,1,2.9-3.77,12.69,12.69,0,0,1,3.74-3,8.77,8.77,0,0,1,4.72-.83,11.07,11.07,0,0,1,8.26,5,9.25,9.25,0,0,1,1.24,4.88,14.47,14.47,0,0,1-1.06,5.08c-.05.12-.1.23-.14.34l0-.06-19.4,22.34-4.53,5.23c-.74.85-1.47,1.72-2.21,2.53a12.37,12.37,0,0,1-2.52,2.05,12.24,12.24,0,0,1-6,1.81,12.93,12.93,0,0,1-3.05-.27l-3-.56L630,317.78l.07.11c.45-3.14.8-5.55,1-7.2.11-.81.2-1.43.26-1.87S631.45,308.18,631.45,308.18Z" style="fill:#263238"></path><path d="M696.89,303.77a15.53,15.53,0,0,1-2.28-1.78c-1.35-1.16-3.17-2.82-5.11-4.74s-3.6-3.73-4.77-5.08a15.21,15.21,0,0,1-1.8-2.26,16.58,16.58,0,0,1,2.07,2c1.23,1.28,2.94,3.05,4.87,5s3.7,3.61,5,4.84A17,17,0,0,1,696.89,303.77Z" style="fill:#e0e0e0"></path><path d="M699.28,300.22a14.36,14.36,0,0,1-2.28-1.78c-1.36-1.16-3.18-2.82-5.11-4.74s-3.61-3.73-4.78-5.08a14.64,14.64,0,0,1-1.79-2.26,17,17,0,0,1,2.06,2c1.24,1.28,3,3.05,4.87,5s3.71,3.61,5,4.84A18,18,0,0,1,699.28,300.22Z" style="fill:#e0e0e0"></path><path d="M673.18,289.55a11,11,0,0,1-2.86-1.62,10.67,10.67,0,0,1-2.56-2.06,11,11,0,0,1,2.86,1.62A10.67,10.67,0,0,1,673.18,289.55Z" style="fill:#e0e0e0"></path><path d="M674.36,286a7,7,0,0,1-2.34-1.32,7.31,7.31,0,0,1-2-1.74,7,7,0,0,1,2.35,1.32C673.53,285.14,674.44,285.92,674.36,286Z" style="fill:#e0e0e0"></path><path d="M663.68,372.66c-6.57-.44-3.48-9.87-3.32-20.38.1-6.58,4.48-13,9.25-17.59A22.57,22.57,0,0,1,678,330a52.13,52.13,0,0,1,25.42-1.63S715.85,376.1,663.68,372.66Z" style="fill:#455a64"></path><path d="M612,308.19l8.1-2.22,6.73,3.37h3.82l.62.25-1.09,7.26-1,.13a9.33,9.33,0,0,1-3.22,1.23c-2.14.46-5.28-.92-5.28-.92l-4.28-2.37-3.06-.87-2.29,1.33a9,9,0,0,0-.23,1.22c0,.31-.84.69-1.3.69s-.61-1.07-.61-1.07l.53-2.29-1.07,1H605.7v-1.68Z" style="fill:#b78876"></path><path d="M597.7,318.94c-.72-1.05-10.64-43.21-10.64-43.21h3.61l10.48,40.39h39v3Z" style="fill:#e0e0e0"></path></g><g id="desk-2--inject-27"><path d="M399.24,281.87a58.62,58.62,0,0,1,6.46-12.26,7.77,7.77,0,0,1,3.34-3.14c2.43-.93,5.06.57,7.23,2l5,3.31a1.32,1.32,0,0,1,.67.78c.09.62-.69,1-1.31,1.05a9.06,9.06,0,0,1-6.11-1.51c-1.35-.93-2.67-2.31-4.3-2.14-2,.21-2.94,2.57-3.73,4.46a20,20,0,0,1-8.56,9.64" style="fill:#00458B"></path><path d="M399.23,282.7c.38-10.07.78-20.22,3.2-30s7-19.3,14.58-25.94c-1,8.48-4.08,16.57-7.13,24.54l-12.35,32.24" style="fill:#00458B"></path><path d="M397.47,286.36a111.42,111.42,0,0,0-7.65-26.66,6.53,6.53,0,0,0-2.32-3.27c-1.72-1-3.93-.36-5.77.46a47.3,47.3,0,0,0-12,7.75,1.76,1.76,0,0,0-.64.91,1.19,1.19,0,0,0,.94,1.22,3.52,3.52,0,0,0,1.67-.1l10.06-2.33a5.18,5.18,0,0,1,3.09-.08,5.25,5.25,0,0,1,2.41,2.83q4.94,10,9.89,19.93" style="fill:#00458B"></path><g style="opacity:0.4"><path d="M399.24,281.87a58.62,58.62,0,0,1,6.46-12.26,7.77,7.77,0,0,1,3.34-3.14c2.43-.93,5.06.57,7.23,2l5,3.31a1.32,1.32,0,0,1,.67.78c.09.62-.69,1-1.31,1.05a9.06,9.06,0,0,1-6.11-1.51c-1.35-.93-2.67-2.31-4.3-2.14-2,.21-2.94,2.57-3.73,4.46a20,20,0,0,1-8.56,9.64"></path></g><g style="opacity:0.4"><path d="M399.23,282.7c.38-10.07.78-20.22,3.2-30s7-19.3,14.58-25.94c-1,8.48-4.08,16.57-7.13,24.54l-12.35,32.24"></path></g><g style="opacity:0.30000000000000004"><path d="M397.47,286.36a111.42,111.42,0,0,0-7.65-26.66,6.53,6.53,0,0,0-2.32-3.27c-1.72-1-3.93-.36-5.77.46a47.3,47.3,0,0,0-12,7.75,1.76,1.76,0,0,0-.64.91,1.19,1.19,0,0,0,.94,1.22,3.52,3.52,0,0,0,1.67-.1l10.06-2.33a5.18,5.18,0,0,1,3.09-.08,5.25,5.25,0,0,1,2.41,2.83q4.94,10,9.89,19.93"></path></g><path d="M412.77,210.44a60,60,0,0,0-14,35.46c-.94,21.44-2.2,36.89-2.2,36.89h2.36s4.73-43.19,7.88-50.76S414.82,213.75,412.77,210.44Z" style="fill:#00458B"></path><path d="M412.77,210.44a4.39,4.39,0,0,1-.29.69c-.23.47-.53,1.11-.91,1.93-.78,1.68-1.87,4.13-3.07,7.22s-2.52,6.81-3.78,11a112.77,112.77,0,0,0-3.3,13.85c-.42,2.49-.61,4.94-.8,7.32s-.31,4.68-.44,6.87c-.26,4.38-.53,8.32-.89,11.62s-.79,6-1.16,7.78c-.17.91-.35,1.61-.46,2.09a3.68,3.68,0,0,1-.2.72s0-.26.11-.74.24-1.18.38-2.1c.32-1.82.71-4.48,1-7.78s.56-7.24.79-11.62c.12-2.19.25-4.49.42-6.87s.37-4.86.8-7.36a107,107,0,0,1,3.34-13.9c1.28-4.2,2.63-7.92,3.88-11s2.37-5.52,3.2-7.18c.41-.83.76-1.46,1-1.9A4.61,4.61,0,0,1,412.77,210.44Z" style="fill:#263238"></path><path d="M421.56,230.51s-16,15.24-17.76,29.62-2.73,22.08-2.73,22.08h1.58s3.78-20.49,8.67-26.95S422.66,232.24,421.56,230.51Z" style="fill:#00458B"></path><path d="M421.37,231.5a2.87,2.87,0,0,1-.23.49l-.75,1.34c-.68,1.22-1.63,2.88-2.79,4.92-2.33,4.16-5.57,9.92-8.5,16.58a84.31,84.31,0,0,0-5.71,17.68c-.46,2.34-.72,4.25-.86,5.57-.09.67-.12,1.18-.16,1.53a1.9,1.9,0,0,1-.09.53,3.54,3.54,0,0,1,0-.53c0-.36,0-.88.08-1.54a53.11,53.11,0,0,1,.72-5.62,79.43,79.43,0,0,1,5.61-17.8,165.07,165.07,0,0,1,8.64-16.55c1.21-2.06,2.21-3.71,2.91-4.85l.82-1.31A3.77,3.77,0,0,1,421.37,231.5Z" style="fill:#263238"></path><path d="M390.71,233.19s-2.37,30.11,3.15,48.07h1.89S397,242.33,390.71,233.19Z" style="fill:#00458B"></path><path d="M392,238.88a1.57,1.57,0,0,1,.08.43c0,.32.07.73.13,1.22.09,1.12.23,2.64.39,4.49.31,3.79.71,9,1.12,14.83s.77,11,1,14.85c.11,1.85.19,3.37.25,4.5,0,.49,0,.89,0,1.23a1.84,1.84,0,0,1,0,.43,1.57,1.57,0,0,1-.08-.43c0-.33-.08-.73-.13-1.22-.1-1.12-.23-2.64-.39-4.49-.31-3.79-.71-9-1.13-14.84s-.76-11-1-14.84c-.11-1.85-.19-3.37-.26-4.5,0-.49,0-.9,0-1.23A1.78,1.78,0,0,1,392,238.88Z" style="fill:#263238"></path><path d="M387,279.52s5.79,4.16,5.49,6.09-14.25,12.32-13.36,20.49,7.57,13.81,19,13.36,19.15-7.57,18.11-14.85-12.38-18.83-12.51-19.39c-.38-1.6,5.09-5.7,5.09-5.7Z" style="fill:#455a64"></path><path d="M407.77,290.07c0,.12-4.22.22-9.42.22s-9.42-.1-9.42-.22,4.22-.22,9.42-.22S407.77,290,407.77,290.07Z" style="fill:#fafafa"></path><path d="M409.09,292.05c0,.12-5,.22-11.09.22s-11.1-.1-11.1-.22,5-.22,11.1-.22S409.09,291.93,409.09,292.05Z" style="fill:#fafafa"></path><path d="M411.09,294.24c0,.12-5.87.22-13.11.22s-13.11-.1-13.11-.22S390.74,294,398,294,411.09,294.11,411.09,294.24Z" style="fill:#fafafa"></path><path d="M412.86,297.15c0,.12-6.76.22-15.11.22s-15.11-.1-15.11-.22,6.76-.22,15.11-.22S412.86,297,412.86,297.15Z" style="fill:#fafafa"></path><polygon points="678.07 319.08 374.13 319.08 374.13 325.79 394.96 325.79 394.96 461.98 402.3 461.98 402.3 325.79 606.22 325.79 606.22 461.98 613.57 461.98 613.57 325.79 678.07 325.79 678.07 319.08" style="fill:#263238"></polygon></g><g id="character-3--inject-27"><path d="M473.16,244a6,6,0,0,1-.18-1,6,6,0,0,0-1-2.47,3.05,3.05,0,0,0-1.4-1.08,2.08,2.08,0,0,0-1.88.3,5.89,5.89,0,0,0,0,8.5,2.08,2.08,0,0,0,1.88.29,3,3,0,0,0,1.4-1.07,6,6,0,0,0,1-2.47,6,6,0,0,1,.18-1,3,3,0,0,1,0,1,5.85,5.85,0,0,1-.93,2.65,3.28,3.28,0,0,1-1.56,1.27,2.52,2.52,0,0,1-2.29-.3,6.28,6.28,0,0,1,0-9.3,2.5,2.5,0,0,1,2.29-.3,3.33,3.33,0,0,1,1.56,1.26,5.92,5.92,0,0,1,.93,2.66A3.09,3.09,0,0,1,473.16,244Z" style="fill:#263238"></path><polygon points="474.61 457.95 473.69 412.28 489.78 413.51 487.27 457.77 474.61 457.95" style="fill:#eb996e"></polygon><path d="M488,458.14l-.05-1.47L474,457l.09,4.87.86,0c3.82.13,19.44.37,22-.46C499.76,460.52,488,458.14,488,458.14Z" style="fill:#00458B"></path><g style="opacity:0.4"><path d="M479.11,461.65a4.8,4.8,0,0,0-1.83-2.91,4.7,4.7,0,0,0-3.25-.93l.08,3.87Z" style="fill:#fff"></path></g><g style="opacity:0.4"><path d="M493.72,459.51s4.15,1.1,3.65,1.79-16.29,1-23.27.58l0-.31,18.42-.25S492.92,459.56,493.72,459.51Z" style="fill:#fff"></path></g><path d="M473.9,461.56a.64.64,0,0,0,.24,0l.68,0,2.52.05c2.12,0,5.06,0,8.3,0s6.18-.2,8.3-.32l2.51-.16.68,0,.24,0h-.24l-.68,0-2.52.1c-2.12.09-5.05.2-8.29.27s-6.18.08-8.3.08H473.9Z" style="fill:#263238"></path><path d="M492.54,461.53a6.09,6.09,0,0,1,.44-1.21,5.74,5.74,0,0,1,.84-1,2.25,2.25,0,0,0-1.28,2.19Z" style="fill:#263238"></path><path d="M488.41,459.55s.23-.21.43-.54.32-.6.28-.62-.23.21-.43.54S488.37,459.53,488.41,459.55Z" style="fill:#263238"></path><path d="M487.28,459s.25-.12.48-.34.4-.42.37-.46-.25.12-.48.34S487.25,459,487.28,459Z" style="fill:#263238"></path><path d="M486.54,457.7a1.73,1.73,0,0,0,.73.07,1.51,1.51,0,0,0,.72-.09,1.61,1.61,0,0,0-.72-.08A1.65,1.65,0,0,0,486.54,457.7Z" style="fill:#263238"></path><path d="M486.28,456.78a1.48,1.48,0,0,0,.81.22,1.49,1.49,0,0,0,.83-.13,3.68,3.68,0,0,0-.82,0A4.38,4.38,0,0,0,486.28,456.78Z" style="fill:#263238"></path><path d="M488.86,458.34a2.86,2.86,0,0,0,.88,0,5.19,5.19,0,0,0,.95-.23,2.18,2.18,0,0,0,.53-.23.48.48,0,0,0,.22-.28.35.35,0,0,0-.15-.36,1.64,1.64,0,0,0-2,.52,1.72,1.72,0,0,0-.28.6c0,.16,0,.24,0,.24a3.15,3.15,0,0,1,.39-.76,1.54,1.54,0,0,1,.75-.51,1.35,1.35,0,0,1,1.06.05c.15.1.09.26-.06.36a2.54,2.54,0,0,1-.5.23,5.74,5.74,0,0,1-.91.25C489.19,458.3,488.86,458.31,488.86,458.34Z" style="fill:#263238"></path><path d="M489.09,458.38a.93.93,0,0,0,.09-.62,1.58,1.58,0,0,0-.26-.65.88.88,0,0,0-.75-.43.35.35,0,0,0-.27.41,1.12,1.12,0,0,0,.16.4,2.61,2.61,0,0,0,.44.52c.28.27.5.37.51.35s-.18-.15-.43-.43a3.34,3.34,0,0,1-.38-.52c-.13-.19-.22-.52,0-.57s.46.19.6.36a1.56,1.56,0,0,1,.26.58A3,3,0,0,1,489.09,458.38Z" style="fill:#263238"></path><path d="M474.1,457.77s.39,0,1,0a4.41,4.41,0,0,1,2.25.87,4.5,4.5,0,0,1,1.44,1.93c.22.59.25,1,.28,1a.88.88,0,0,0,0-.28,3.17,3.17,0,0,0-.16-.75,4.37,4.37,0,0,0-1.45-2,4.23,4.23,0,0,0-2.34-.85,3.42,3.42,0,0,0-.76,0A.78.78,0,0,0,474.1,457.77Z" style="fill:#263238"></path><path d="M480.82,460.27a8,8,0,0,0,2,.15,8.18,8.18,0,0,0,2-.2c0-.05-.91,0-2,0S480.83,460.22,480.82,460.27Z" style="fill:#263238"></path><path d="M478.11,460.32s.08.19.18.4.15.39.2.38.06-.22-.05-.45S478.14,460.29,478.11,460.32Z" style="fill:#263238"></path><path d="M477.06,459.07s.06.18.21.32.29.23.32.2-.06-.18-.2-.32S477.1,459,477.06,459.07Z" style="fill:#263238"></path><path d="M475.59,458.52c0,.05.19.05.4.11s.35.18.39.14-.09-.22-.34-.3S475.57,458.48,475.59,458.52Z" style="fill:#263238"></path><path d="M474.54,458.27c0,.05.07.12.18.16s.23,0,.24,0-.06-.12-.18-.16S474.56,458.23,474.54,458.27Z" style="fill:#263238"></path><polygon points="492.22 457.68 491.13 415.32 507.21 413.51 505.12 457.58 492.22 457.68" style="fill:#ffbe9d"></polygon><path d="M449.32,338.88c15.68.11,31.39.21,47,1.63,6.23.57,13,1.6,17.3,6.12,4.06,4.22,5,10.46,5.75,16.27L526.22,416A245,245,0,0,1,461.14,414q.23-19.75.46-39.5l.34-6.19-24.15-1.57Z" style="fill:#00458B"></path><rect x="482.46" y="316.44" width="63.82" height="3.1" transform="translate(1028.74 635.99) rotate(180)" style="fill:#263238"></rect><polygon points="556.17 319.55 568.14 274.69 518.31 274.69 507.47 319.55 556.17 319.55" style="fill:#263238"></polygon><polygon points="510.45 316.15 554.97 316.15 565.33 276.76 520.59 276.76 510.45 316.15" style="fill:#f5f5f5"></polygon><polygon points="521.69 284.39 518.93 295.55 548.45 295.55 551.6 284.39 521.69 284.39" style="fill:#e0e0e0"></polygon><path d="M545.37,282.92c0,.12-5.18.22-11.56.22s-11.56-.1-11.56-.22,5.17-.21,11.56-.21S545.37,282.8,545.37,282.92Z" style="fill:#455a64"></path><path d="M531.92,286.53a51.81,51.81,0,0,1-9.32,0,49.46,49.46,0,0,1,9.32,0Z" style="fill:#263238"></path><path d="M539.39,286.35a21,21,0,0,1-6.06,0,22,22,0,0,1,6.06,0Z" style="fill:#263238"></path><path d="M547.83,288.55c0,.12-5.7.22-12.74.22s-12.75-.1-12.75-.22,5.7-.22,12.75-.22S547.83,288.43,547.83,288.55Z" style="fill:#455a64"></path><path d="M530.07,290.4a40.72,40.72,0,0,1-8.26,0,38.88,38.88,0,0,1,8.26,0Z" style="fill:#00458B"></path><path d="M545.55,293c0,.12-5.3.22-11.83.22s-11.82-.1-11.82-.22,5.29-.21,11.82-.21S545.55,292.92,545.55,293Z" style="fill:#455a64"></path><path d="M528.14,298.75a47.68,47.68,0,0,1-9.15,0,47.68,47.68,0,0,1,9.15,0Z" style="fill:#455a64"></path><path d="M536,298.78a11.16,11.16,0,0,1-3.12.19,11.31,11.31,0,0,1-3.12-.24,11.62,11.62,0,0,1,3.12-.19A12.18,12.18,0,0,1,536,298.78Z" style="fill:#263238"></path><path d="M540.36,298.57c0,.12-.59.22-1.32.22s-1.32-.1-1.32-.22.59-.21,1.32-.21S540.36,298.45,540.36,298.57Z" style="fill:#263238"></path><path d="M522.07,301c0,.11-.65.21-1.45.21s-1.45-.1-1.45-.21.65-.22,1.45-.22S522.07,300.92,522.07,301Z" style="fill:#00458B"></path><path d="M530.78,301a28.86,28.86,0,0,1-6.95,0,27.55,27.55,0,0,1,6.95,0Z" style="fill:#263238"></path><path d="M551.53,300.77c0,.12-4.16.22-9.28.22s-9.28-.1-9.28-.22,4.16-.21,9.28-.21S551.53,300.65,551.53,300.77Z" style="fill:#455a64"></path><path d="M521.63,303.41c0,.12-.67.22-1.49.22s-1.5-.1-1.5-.22.67-.22,1.5-.22S521.63,303.29,521.63,303.41Z" style="fill:#263238"></path><path d="M526.2,303.32a7.47,7.47,0,0,1-3.6,0,7.82,7.82,0,0,1,3.6,0Z" style="fill:#263238"></path><path d="M539.83,303.15a81.45,81.45,0,0,1-11.69,0,77.76,77.76,0,0,1,11.69,0Z" style="fill:#455a64"></path><path d="M532.62,307.28a119.29,119.29,0,0,1-14.15,0,113.87,113.87,0,0,1,14.15,0Z" style="fill:#455a64"></path><path d="M540.89,307.1a23.53,23.53,0,0,1-6.42,0,24.64,24.64,0,0,1,6.42,0Z" style="fill:#00458B"></path><path d="M553.15,307.1a64.43,64.43,0,0,1-10.64,0,67.49,67.49,0,0,1,10.64,0Z" style="fill:#263238"></path><path d="M550.3,282.75c0,.12-.5.21-1.1.21s-1.1-.09-1.1-.21.49-.22,1.1-.22S550.3,282.63,550.3,282.75Z" style="fill:#263238"></path><path d="M527.87,281.25a13.37,13.37,0,0,1-4.83,0,14,14,0,0,1,4.83,0Z" style="fill:#00458B"></path><path d="M564.59,279.6H519.83l.76-2.84h44.74Z" style="fill:#ebebeb"></path><path d="M523,278.2a.49.49,0,0,1-1,0,.49.49,0,0,1,1,0Z" style="fill:#fafafa"></path><path d="M524.64,278.2a.48.48,0,0,1-.49.48.47.47,0,0,1-.48-.48.48.48,0,0,1,.48-.49A.49.49,0,0,1,524.64,278.2Z" style="fill:#fafafa"></path><path d="M526.33,278.2a.49.49,0,0,1-1,0,.49.49,0,1,1,1,0Z" style="fill:#fafafa"></path><path d="M471.7,298.45l6.39,19.24c1.73,5.2,6.27,6.09,11.74,6.09h35.55v-8l-32.48-4.63-7.73-19.77Z" style="fill:#ffbe9d"></path><path d="M529.28,314.15l2.82-1.34s3-5.87,3.74-5.64.9,2-.32,4.66l3.75-1.07s8.12,3.76,7.76,4.26a1.87,1.87,0,0,1-2.79.8c-1.77-.9-4.09-2-4.09-2l-4.37,1.25,5.64.72,5.31,4.83a2.61,2.61,0,0,1-3.25-.08l-13.79,3-4.31.25v-8Z" style="fill:#ffbe9d"></path><path d="M543.48,320.57c-.06,0-.32-.37-.81-.91a4.26,4.26,0,0,0-1-.78,4,4,0,0,0-1.48-.38,20.87,20.87,0,0,1-4.14-.71,19.85,19.85,0,0,1,4.19.28,3.51,3.51,0,0,1,2.67,1.39A2.47,2.47,0,0,1,543.48,320.57Z" style="fill:#eb996e"></path><path d="M541.32,321.12c-.05,0-.09-.28-.48-.36s-1-.15-1.67-.22a13.92,13.92,0,0,1-2.43-.24,4.75,4.75,0,0,1,2.47-.19,7.56,7.56,0,0,1,1.73.36.7.7,0,0,1,.42.43C541.4,321.05,541.35,321.13,541.32,321.12Z" style="fill:#eb996e"></path><path d="M446,231.66,444,270.75l16.73,1.57.93-9.48s5.9,1.46,7.69-4c1.15-3.48,2.17-30.81,2.17-30.81Z" style="fill:#ffbe9d"></path><path d="M472.73,306.57l2.5,10.12,20.26-5.1c-.62-1.94-6-14.19-11.46-27.89a23.53,23.53,0,0,0-18-14.49,101.4,101.4,0,0,0-16.61-1.63c-9.73.1-22.33,4.19-24.25,13.73-1.47,7.28,1.8,19.17,1.8,34.78l-2.3,32.79L473,350.52l-4.89-28.78Z" style="fill:#00458B"></path><g style="opacity:0.2"><path d="M425.19,313.89c6.06,1.24,10.57-1.76,16.75-2.13,3.75-.22,7.91-.62,10.87,1.68,2.35,1.83,3.3,4.9,4,7.8,1.47,6.28,2.48,19.27,3.18,31.4a22.8,22.8,0,0,0,12.62,19.1c1.93,1,7,1,7.06,1.65l-49.55,2Z"></path></g><path d="M471.28,225.51c-2.82-1.55-6.12-1.92-9.35-2a21.91,21.91,0,0,0-4.28-.51s-13-1.43-17,10.64h0v0a22.66,22.66,0,0,0-.92,4c0,.17,0,.33-.05.5a.29.29,0,0,1,0,.09l-.07,0v.27a17.84,17.84,0,0,1-.72,2.25,13,13,0,0,1-1.6,1.71c-2.23,2-5,3.76-6.08,6.54-.82,2-.66,4.31-.69,6.51s-.32,4.57-1.82,6.17c-1.09,1.16-2.64,1.75-3.92,2.7-3.52,2.64-4.3,7.81-3,12,.42,1.39,1,2.82.73,4.23-.39,1.77-2.13,3.06-2.3,4.86a3.75,3.75,0,0,0,1.95,3.44,7.25,7.25,0,0,0,4,.82,11.54,11.54,0,0,0,1.17-.1,6.47,6.47,0,0,1-2.07,3.07,85.13,85.13,0,0,0,13.34,1.09l2.61-7,3.53,6.89c5.08-.19,10.18-.63,15.24-1.07a15.28,15.28,0,0,1,.39-13.09c1.25-2.41,3.23-4.76,2.9-7.46-.44-3.71-5.14-6.44-4.21-10.06a4.11,4.11,0,0,1,.91-1.68,19.81,19.81,0,0,0,5.08-3.12c1.67-1.53,2.09-2.34,2.19-5.56h0a28.12,28.12,0,0,0,1.21-13l-.05-.33s3.66.61,3.88-2.16a2.75,2.75,0,0,0,1.24,0c0-.69.22-2.26.21-3,.24.44.54,2.06.79,2.5.59-.11,1.23-.35,1.82-.45C476.91,231.77,474.4,227.21,471.28,225.51Z" style="fill:#263238"></path><path d="M441.88,245.34s-.08.16-.28.46l-.88,1.26a20.29,20.29,0,0,0-2.62,5,10.63,10.63,0,0,0-.56,3.79,8.91,8.91,0,0,0,1.33,4.15,11.13,11.13,0,0,1,1.82,4.7,6.9,6.9,0,0,1-2.34,4.87,43.25,43.25,0,0,0-3.79,3.72,7.81,7.81,0,0,0-1.57,4.48,22,22,0,0,0,.3,4.44,34.58,34.58,0,0,1,.41,3.93,9.05,9.05,0,0,1-1.39,5.5,5.25,5.25,0,0,1-1.07,1.14,1.66,1.66,0,0,1-.46.29,7.89,7.89,0,0,0,1.36-1.54,9,9,0,0,0,1.19-5.38,35,35,0,0,0-.47-3.87,21.86,21.86,0,0,1-.35-4.53,8.24,8.24,0,0,1,1.64-4.78,45.36,45.36,0,0,1,3.83-3.76,6.43,6.43,0,0,0,2.2-4.49c-.06-1.66-1-3.1-1.73-4.49a12.18,12.18,0,0,1-1-2.16,8.2,8.2,0,0,1-.38-2.2,11,11,0,0,1,.64-3.93,19,19,0,0,1,2.8-5c.41-.54.74-.95,1-1.22S441.87,245.32,441.88,245.34Z" style="fill:#263238"></path><path d="M505.8,458.12l0-1.47-13.89.34.09,4.87.85,0c3.83.13,19.44.37,22-.46C517.61,460.51,505.8,458.12,505.8,458.12Z" style="fill:#00458B"></path><g style="opacity:0.4"><path d="M497,461.64a4.79,4.79,0,0,0-1.83-2.91,4.67,4.67,0,0,0-3.26-.94l.09,3.87Z" style="fill:#fff"></path></g><g style="opacity:0.4"><path d="M511.58,459.49s4.14,1.1,3.64,1.79-16.29,1-23.26.58v-.31l18.42-.25S510.77,459.54,511.58,459.49Z" style="fill:#fff"></path></g><path d="M491.75,461.54a.68.68,0,0,0,.24,0l.69,0,2.51.05c2.13,0,5.06,0,8.3,0s6.18-.2,8.3-.32l2.51-.16.69-.05.23,0H515l-.68,0-2.51.1c-2.12.09-5.06.2-8.3.27s-6.17.08-8.3.08h-3.44Z" style="fill:#263238"></path><path d="M510.39,461.52a6.24,6.24,0,0,1,.45-1.22,5.92,5.92,0,0,1,.83-1,1.94,1.94,0,0,0-1,.9A1.89,1.89,0,0,0,510.39,461.52Z" style="fill:#263238"></path><path d="M506.27,459.53s.23-.21.42-.54.32-.6.28-.62-.23.21-.42.54S506.23,459.51,506.27,459.53Z" style="fill:#263238"></path><path d="M505.14,459s.24-.12.48-.34.39-.42.36-.46-.25.12-.48.34S505.1,458.93,505.14,459Z" style="fill:#263238"></path><path d="M504.4,457.68a1.67,1.67,0,0,0,.72.07c.4,0,.73,0,.72-.09s-.32-.08-.72-.07A1.51,1.51,0,0,0,504.4,457.68Z" style="fill:#263238"></path><path d="M504.14,456.76a1.44,1.44,0,0,0,.81.22,1.49,1.49,0,0,0,.83-.13,4.66,4.66,0,0,0-.82,0A5.69,5.69,0,0,0,504.14,456.76Z" style="fill:#263238"></path><path d="M506.71,458.32a2.57,2.57,0,0,0,.89,0,5.1,5.1,0,0,0,.94-.23,2.43,2.43,0,0,0,.54-.23.51.51,0,0,0,.21-.28.35.35,0,0,0-.14-.36,1.64,1.64,0,0,0-2,.53,1.53,1.53,0,0,0-.27.6.56.56,0,0,0,0,.24,2.31,2.31,0,0,1,.39-.77,1.5,1.5,0,0,1,.75-.51,1.35,1.35,0,0,1,1.06.05c.14.1.09.27-.07.36a2.75,2.75,0,0,1-.49.23,7.74,7.74,0,0,1-.91.26C507.05,458.28,506.71,458.29,506.71,458.32Z" style="fill:#263238"></path><path d="M506.94,458.36s.14-.22.09-.62a1.35,1.35,0,0,0-.26-.65.87.87,0,0,0-.75-.43.34.34,0,0,0-.26.41,1,1,0,0,0,.16.4,2.64,2.64,0,0,0,.43.52c.29.27.51.37.52.35s-.18-.15-.43-.43a2.82,2.82,0,0,1-.39-.52c-.12-.19-.22-.52,0-.57s.45.19.59.37a1.32,1.32,0,0,1,.26.57A3,3,0,0,1,506.94,458.36Z" style="fill:#263238"></path><path d="M492,457.75s.4,0,1,0a4.35,4.35,0,0,1,3.69,2.8c.22.59.25,1,.29,1a.86.86,0,0,0,0-.28,3.93,3.93,0,0,0-.17-.75,4.17,4.17,0,0,0-3.79-2.88,3.42,3.42,0,0,0-.76,0A.89.89,0,0,0,492,457.75Z" style="fill:#263238"></path><path d="M498.68,460.25a7.92,7.92,0,0,0,2,.15,8,8,0,0,0,2-.2c0-.05-.91,0-2,0S498.68,460.2,498.68,460.25Z" style="fill:#263238"></path><path d="M496,460.3s.08.19.17.4.15.39.2.38.07-.22,0-.45S496,460.27,496,460.3Z" style="fill:#263238"></path><path d="M494.92,459.06s.06.17.2.31.3.23.33.2-.06-.18-.21-.32S495,459,494.92,459.06Z" style="fill:#263238"></path><path d="M493.44,458.51s.2,0,.4.1.36.18.39.14-.08-.22-.34-.3S493.43,458.46,493.44,458.51Z" style="fill:#263238"></path><path d="M492.4,458.25c0,.05.06.12.18.16s.22,0,.24,0-.07-.12-.18-.16S492.41,458.21,492.4,458.25Z" style="fill:#263238"></path><path d="M486.3,410.91c-.14,0,.25-7.42.88-16.56s1.26-16.53,1.4-16.52-.25,7.42-.88,16.56S486.45,410.92,486.3,410.91Z" style="fill:#263238"></path><path d="M494.29,412.79a7,7,0,0,1-.15-1.36c-.07-1-.16-2.23-.27-3.73-.21-3.15-.52-7.5-.95-12.29s-.9-9.13-1.25-12.27c-.17-1.49-.3-2.73-.41-3.71a7.77,7.77,0,0,1-.09-1.37,6.13,6.13,0,0,1,.29,1.34c.15.87.35,2.13.57,3.7.45,3.13,1,7.46,1.41,12.26s.68,9.16.8,12.32c.06,1.58.09,2.86.1,3.74A6.71,6.71,0,0,1,494.29,412.79Z" style="fill:#263238"></path><g style="opacity:0.2"><path d="M497.64,377.09a38.22,38.22,0,0,1-25.84,19.14c-2.25.44-4.72.65-6.71-.5-2.71-1.58-3.55-5.11-3.51-8.25s0-7.4,0-10.39Z"></path></g><path d="M435.18,378.3C435,380,424,461.84,424,461.84l3.83.13,14.09-82.84Z" style="fill:#455a64"></path><path d="M481.54,378.11c.16,1.68,12,84,12,84h-3.84L475,379.39Z" style="fill:#455a64"></path><path d="M466.29,305.17a12.79,12.79,0,0,0-12.68-12.74c-7.92-.06-16.88,0-19,.47-3.7.76-7.33,2.71-9.29,5.94s-2,7.29-2,11.09q.1,24.07.2,48.15l43-.18Z" style="fill:#455a64"></path><path d="M423.48,355.86c-.15,9.49.76,17.2,7.79,20.9,5.25,2.77,11.59,2.81,17.63,2.77l26.12-.14c2.64,0,5.48-.08,7.64-1.52a7.42,7.42,0,0,0,2.93-7.3,13.72,13.72,0,0,0-4-7.14c-7.58-7.82-19.52-10.11-30.62-12" style="fill:#455a64"></path><path d="M482,373.75c6.29-.42,3.33-9.45,3.17-19.51-.09-6.31-4.28-12.49-8.85-16.84a21.49,21.49,0,0,0-8-4.48,49.81,49.81,0,0,0-24.34-1.56S432,377,482,373.75Z" style="fill:#455a64"></path><polygon points="438.63 385.54 483.02 405.87 482.43 407.38 437.79 387.1 438.63 385.54" style="fill:#455a64"></polygon><polygon points="435.96 407.79 478.13 384.27 478.93 385.69 436.65 409.45 435.96 407.79" style="fill:#455a64"></polygon><path d="M511.31,415.63a4.32,4.32,0,0,1-.13-.76c-.07-.55-.16-1.28-.28-2.2-.22-2-.54-4.71-.92-8.08-.73-6.88-1.73-16.29-2.84-26.69q-.4-3.91-.78-7.61a26.32,26.32,0,0,0-1.42-6.9,10.8,10.8,0,0,0-3.77-5,15.12,15.12,0,0,0-5-2.35,30.48,30.48,0,0,0-8-.83l-2.21,0a6.58,6.58,0,0,1-.77,0,3.87,3.87,0,0,1,.77-.09c.5,0,1.25-.08,2.21-.11a28.9,28.9,0,0,1,8.12.68,15.27,15.27,0,0,1,5.15,2.35,11.21,11.21,0,0,1,4,5.14,26.87,26.87,0,0,1,1.47,7c.26,2.46.53,5,.8,7.62,1,10.4,2,19.82,2.69,26.7.31,3.38.57,6.14.75,8.1.08.92.14,1.66.18,2.21A3.73,3.73,0,0,1,511.31,415.63Z" style="fill:#263238"></path><path d="M471.85,272c0,.06-.55.18-1.46.64a9.1,9.1,0,0,0-3.17,2.84,11.53,11.53,0,0,0-2.06,5.92,21.85,21.85,0,0,0,1.27,7.69c1.62,5.38,3.53,10.1,4.78,13.57l1.52,4.09a8.5,8.5,0,0,1,.49,1.52,9.64,9.64,0,0,1-.68-1.45c-.41-.94-1-2.32-1.67-4-1.34-3.43-3.31-8.14-4.94-13.55a21.81,21.81,0,0,1-1.25-7.87,11.8,11.8,0,0,1,2.24-6.11,8.82,8.82,0,0,1,3.38-2.8,5.63,5.63,0,0,1,1.13-.39A1.79,1.79,0,0,1,471.85,272Z" style="fill:#263238"></path><path d="M473.16,244a16.53,16.53,0,0,1-5.84,0,16.53,16.53,0,0,1,5.84,0Z" style="fill:#263238"></path></g><g id="character-2--inject-27"><path d="M345.6,215.22c.32-3.64,2.69-7.38,1.15-10.7-1.1-2.36-3.83-3.52-5.28-5.69-2.12-3.16-1-7.57-2.59-11a8.2,8.2,0,0,0-1.66-2.34,6.65,6.65,0,0,0,1.73.17,5.44,5.44,0,0,0,5-3.46,5,5,0,0,0-2.59-5.8,5.82,5.82,0,0,0-6.42,1.16,6.92,6.92,0,0,0-2,5.28,35,35,0,0,0-5.69-1.61L305,185.07c1.31,3.35-.51,7-2.29,10.15s-3.64,6.77-2.4,10.15c.66,1.8,2.18,3.59,1.49,5.37-.35.92-2.38,4.22-2.75,5.14-2.86,7.16-.83,12,.41,16,17.79,2.93,30.9,12.34,48.05,6.76C359.06,231.84,345.29,218.8,345.6,215.22Z" style="fill:#263238"></path><path d="M243.75,254.51a22.24,22.24,0,0,1-3.39-2.1,5.8,5.8,0,0,1-1.41-1.47,9,9,0,0,1-1.21-2.24.79.79,0,0,0-1.48-.21c-.26.66.23,2.76,1.84,4.71s-2.29,1.16-3.72.9-5.86-.87-6.29-.49c-.63.55-.15,1.32,1.27,1.55s5.67,1.21,5.49,2-7.4-.7-7.4-.7-1.5-.56-1.73.3c-.41,1.54,7.39,2.5,8.13,2.57.52,0,.36.86-.2.78s-7.17-1.59-7.61,0c-.34,1.2,6.4.85,7.6,1.92s-5.14-.25-5.41.91c-.11.43-.12.77,3.63,1,1.27.07,3.27,0,5.37-.1h0l10.62.35,3.33-9.67Z" style="fill:#ffbe9d"></path><path d="M225.08,236.78c.16.84,20,28.5,20,28.5L225,279.51l-20.93-29.08Z" style="fill:#00458B"></path><path d="M225.08,236.78c.16.84,20,28.5,20,28.5L225,279.51l-20.93-29.08Z" style="opacity:0.4"></path><path d="M225.32,234.94c.17.85,20,28.5,20,28.5l-20.1,14.24L204.31,248.6Z" style="fill:#00458B"></path><polygon points="239.41 255.15 239.07 257.6 243.71 264.6 245.34 263.44 239.41 255.15" style="fill:#fafafa"></polygon><path d="M226.43,249.55a49.06,49.06,0,0,1-8.55,5.48,24.94,24.94,0,0,1,4.14-3A25.63,25.63,0,0,1,226.43,249.55Z" style="fill:#263238"></path><path d="M224.37,249.3a10.49,10.49,0,0,1-2.69,1.84,10.12,10.12,0,0,1-3,1.39,10.31,10.31,0,0,1,2.7-1.84A10.53,10.53,0,0,1,224.37,249.3Z" style="fill:#263238"></path><polygon points="334.56 408.41 367.02 448.17 375.24 438.12 350.69 402.56 334.56 408.41" style="fill:#ffbe9d"></polygon><path d="M366.33,449.14l-1-.91,9.46-11.12,4.06,3.72-.56.71c-2.55,3.09-13.2,15.54-15.61,17C360,460.08,366.33,449.14,366.33,449.14Z" style="fill:#00458B"></path><g style="opacity:0.5"><path d="M375.22,444.62a5,5,0,0,1-1-3.46,4.87,4.87,0,0,1,1.52-3.2l3,2.75Z" style="fill:#fff"></path></g><g style="opacity:0.5"><path d="M363.4,454.63s-2,4-1.12,4.11,12.11-12.1,16.59-17.91l-.25-.2-13,14.32S364,454,363.4,454.63Z" style="fill:#fff"></path></g><path d="M378.77,440.46l-.15.2c-.14.17-.29.35-.45.56-.47.54-1,1.22-1.71,2-1.45,1.69-3.48,4-5.79,6.51s-4.44,4.72-6,6.31l-1.87,1.86-.52.5-.18.17s0-.07.16-.2l.49-.52,1.83-1.9c1.54-1.61,3.66-3.84,6-6.34s4.35-4.8,5.83-6.47l1.74-2,.48-.53C378.7,440.52,378.76,440.45,378.77,440.46Z" style="fill:#263238"></path><path d="M365.81,455.1a6.37,6.37,0,0,0-1.26-.49,5.75,5.75,0,0,0-1.35,0,2.34,2.34,0,0,1,2.61.51Z" style="fill:#263238"></path><path d="M367.12,450.48s-.33,0-.72,0a1.67,1.67,0,0,1-.69-.21c0-.05.33,0,.72,0S367.13,450.43,367.12,450.48Z" style="fill:#263238"></path><path d="M367.46,449.2c0,.05-.27.11-.6.14s-.61,0-.61,0,.26-.11.59-.14S367.45,449.15,367.46,449.2Z" style="fill:#263238"></path><path d="M367,447.72s-.16.31-.44.62-.53.54-.57.51.16-.31.44-.62S366.92,447.69,367,447.72Z" style="fill:#263238"></path><path d="M366.42,446.88a1.56,1.56,0,0,1-.39.79c-.31.39-.65.6-.68.56s.25-.3.54-.67S366.37,446.86,366.42,446.88Z" style="fill:#263238"></path><path d="M365.85,450a2.61,2.61,0,0,1-.63.68,5.08,5.08,0,0,1-.84.58,2.55,2.55,0,0,1-.55.26.54.54,0,0,1-.37,0,.35.35,0,0,1-.18-.35,1.71,1.71,0,0,1,1.8-1.22,1.51,1.51,0,0,1,.66.2.58.58,0,0,1,.21.15,2.84,2.84,0,0,0-.88-.23,1.67,1.67,0,0,0-.92.24,1.46,1.46,0,0,0-.7.87c0,.18.15.26.34.2a3,3,0,0,0,.52-.23,8,8,0,0,0,.83-.54C365.59,450.23,365.83,450,365.85,450Z" style="fill:#263238"></path><path d="M365.72,450.19s-.27,0-.54-.35a1.48,1.48,0,0,1-.33-.65,1,1,0,0,1,.17-.9.38.38,0,0,1,.52.08,1.12,1.12,0,0,1,.19.4,2.92,2.92,0,0,1,.12.71,1.43,1.43,0,0,1-.08.65s0-.25,0-.64a3.92,3.92,0,0,0-.15-.67c-.06-.23-.26-.53-.45-.39a.85.85,0,0,0-.12.72,1.48,1.48,0,0,0,.26.61A2.77,2.77,0,0,0,365.72,450.19Z" style="fill:#263238"></path><path d="M375.65,438a10.08,10.08,0,0,0-.7.81,4.53,4.53,0,0,0-.35,4.85c.31.58.6.88.58.9s-.09-.06-.22-.2a3.66,3.66,0,0,1-.47-.64,4.5,4.5,0,0,1-.59-2.55,4.46,4.46,0,0,1,1-2.44,3.79,3.79,0,0,1,.56-.57C375.55,438,375.64,438,375.65,438Z" style="fill:#263238"></path><path d="M373,445a8.52,8.52,0,0,1-1.3,1.69,7.77,7.77,0,0,1-1.57,1.43s.66-.69,1.44-1.55S372.92,445,373,445Z" style="fill:#263238"></path><path d="M374.87,442.91c.05,0,.09.2.19.42s.2.38.16.42-.22-.1-.32-.36S374.82,442.91,374.87,442.91Z" style="fill:#263238"></path><path d="M374.62,441.22s.09.17.1.38,0,.39-.07.39-.09-.16-.1-.38S374.57,441.22,374.62,441.22Z" style="fill:#263238"></path><path d="M375.21,439.68s-.11.18-.2.39-.11.4-.16.4-.11-.22,0-.47S375.18,439.64,375.21,439.68Z" style="fill:#263238"></path><path d="M375.74,438.68s0,.13,0,.25-.12.21-.17.19,0-.13,0-.25S375.69,438.67,375.74,438.68Z" style="fill:#263238"></path><polygon points="279.57 440.69 276.71 458.26 291.74 458.26 295.2 443.94 279.57 440.69" style="fill:#ffbe9d"></polygon><path d="M277.19,458.64l.05-1.34,14.59-.06-.17,5.51-.9,0c-4,.08-20.39.12-23-.79C264.77,461,277.19,458.64,277.19,458.64Z" style="fill:#00458B"></path><g style="opacity:0.5"><path d="M286.41,462.45a5,5,0,0,1,2-3,4.87,4.87,0,0,1,3.42-.93l-.14,4.05Z" style="fill:#fff"></path></g><g style="opacity:0.5"><path d="M271.11,460s-4.36,1.09-3.85,1.83,17.07,1.31,24.4.93v-.33l-19.32-.51S272,460.06,271.11,460Z" style="fill:#fff"></path></g><path d="M291.87,462.42a.67.67,0,0,1-.25,0l-.71,0-2.64,0c-2.23,0-5.31,0-8.71-.15s-6.47-.3-8.7-.45l-2.63-.2-.71-.07-.25,0h.25l.72,0,2.63.14c2.22.13,5.3.28,8.7.4s6.47.18,8.7.21l2.64,0,.71,0Z" style="fill:#263238"></path><path d="M272.33,462.13a7.07,7.07,0,0,0-.45-1.27,5.65,5.65,0,0,0-.87-1,1.88,1.88,0,0,1,1,.95A2,2,0,0,1,272.33,462.13Z" style="fill:#263238"></path><path d="M276.68,460.11s-.24-.23-.44-.57a1.52,1.52,0,0,1-.28-.66s.23.23.43.57A1.61,1.61,0,0,1,276.68,460.11Z" style="fill:#263238"></path><path d="M277.88,459.53s-.26-.12-.5-.36-.41-.45-.38-.48.26.12.5.36S277.91,459.5,277.88,459.53Z" style="fill:#263238"></path><path d="M278.67,458.19a3.26,3.26,0,0,1-1.52,0,3.26,3.26,0,0,1,1.52,0Z" style="fill:#263238"></path><path d="M279,457.23a1.44,1.44,0,0,1-.86.22,1.38,1.38,0,0,1-.86-.15,5.76,5.76,0,0,1,.86,0A7.14,7.14,0,0,1,279,457.23Z" style="fill:#263238"></path><path d="M276.23,458.83a2.68,2.68,0,0,1-.93,0,5,5,0,0,1-1-.25,2.54,2.54,0,0,1-.56-.26.48.48,0,0,1-.22-.29.35.35,0,0,1,.15-.37,1.72,1.72,0,0,1,2.1.57,1.68,1.68,0,0,1,.28.64c0,.16,0,.25,0,.25a2.58,2.58,0,0,0-.39-.81,1.72,1.72,0,0,0-.78-.55,1.43,1.43,0,0,0-1.11,0c-.15.1-.1.28.06.38a2.41,2.41,0,0,0,.51.25,7.31,7.31,0,0,0,.95.28C275.88,458.79,276.23,458.8,276.23,458.83Z" style="fill:#263238"></path><path d="M276,458.87a.94.94,0,0,1-.08-.65,1.51,1.51,0,0,1,.27-.67.94.94,0,0,1,.8-.45.37.37,0,0,1,.27.44,1,1,0,0,1-.17.41,3,3,0,0,1-.46.55,1.64,1.64,0,0,1-.55.36s.19-.16.46-.45a3.27,3.27,0,0,0,.41-.55c.13-.19.23-.54,0-.59s-.48.19-.63.37a1.54,1.54,0,0,0-.28.6A2.94,2.94,0,0,0,276,458.87Z" style="fill:#263238"></path><path d="M291.72,458.45a10.17,10.17,0,0,0-1.07,0,4.55,4.55,0,0,0-2.37.88,4.64,4.64,0,0,0-1.54,2c-.24.61-.28,1-.31,1a.91.91,0,0,1,0-.29,3.88,3.88,0,0,1,.19-.78,4.39,4.39,0,0,1,4-3,4.27,4.27,0,0,1,.8.05C291.62,458.4,291.72,458.43,291.72,458.45Z" style="fill:#263238"></path><path d="M284.63,461a8.05,8.05,0,0,1-2.12.12,7.78,7.78,0,0,1-2.12-.26s.95.05,2.12.09S284.63,460.93,284.63,461Z" style="fill:#263238"></path><path d="M287.47,461.06s-.08.2-.19.42-.16.4-.21.4-.07-.24.06-.48S287.44,461,287.47,461.06Z" style="fill:#263238"></path><path d="M288.59,459.77s-.07.18-.22.33-.31.24-.34.2.06-.18.22-.33S288.56,459.73,288.59,459.77Z" style="fill:#263238"></path><path d="M290.14,459.21c0,.05-.2,0-.42.11s-.37.18-.41.14.1-.23.36-.31S290.16,459.17,290.14,459.21Z" style="fill:#263238"></path><path d="M291.25,459s-.07.11-.2.16-.23,0-.25,0,.07-.12.2-.16S291.23,458.92,291.25,459Z" style="fill:#263238"></path><path d="M304.75,299.69S292.22,337.53,288,370.24s-10.29,77.66-10.29,77.66L295.2,449l26.7-88.51,17.21-24.36a51.48,51.48,0,0,0,9.1-35.6l-.59-5.11Z" style="fill:#263238"></path><path d="M304.57,307.83l9.16,75.48a35.4,35.4,0,0,0,9,19.56l33,36.25L367.32,425,337,376.83,343.8,301l-40.91,7.77" style="fill:#263238"></path><path d="M337.34,376.23a35.65,35.65,0,0,0-3.14,2.61,37.36,37.36,0,0,0-2.44,3.28,8.83,8.83,0,0,1,5.58-5.89Z" style="fill:#455a64"></path><path d="M336.78,376.79a24,24,0,0,1-3.23.28,26.33,26.33,0,0,1-3.23.35,7.08,7.08,0,0,1,3.18-.86A6.91,6.91,0,0,1,336.78,376.79Z" style="fill:#455a64"></path><path d="M347.11,317.6a7.07,7.07,0,0,1-.14.86l-.21,1c-.09.41-.24.87-.39,1.39a33.22,33.22,0,0,1-4.07,8.25C340.16,332.4,337.17,336,334,340a65,65,0,0,0-4.61,6.56,77.94,77.94,0,0,0-4,7.61c-2.47,5.37-4.46,10.65-6.16,15.49s-3.1,9.24-4.28,12.93l-2.82,8.75c-.33,1-.6,1.78-.8,2.37a5,5,0,0,1-.31.81,4.56,4.56,0,0,1,.21-.84c.18-.59.41-1.39.71-2.4l2.65-8.8c1.15-3.71,2.52-8.12,4.19-13a166,166,0,0,1,6.14-15.55,81.38,81.38,0,0,1,4-7.66,63.88,63.88,0,0,1,4.67-6.58c3.2-4,6.2-7.54,8.36-10.75a33.85,33.85,0,0,0,4.18-8.1c.17-.52.34-1,.44-1.37s.19-.73.26-1A4.65,4.65,0,0,1,347.11,317.6Z" style="fill:#455a64"></path><path d="M302.89,230.57a59.39,59.39,0,0,0-.84,18.41c1.15,11,5,23.67,5,23.67l-2.75,28.29,45.1-.58-8.59-33.21,2-7.64,5.27-30a20.85,20.85,0,0,0-13.31-4.88c-8,.07-19.6,0-19.6,0S306.31,223.37,302.89,230.57Z" style="fill:#00458B"></path><path d="M304,228.71l-16.72,25-40.66.57-1.56,10.48s44.8,7.58,47.79,6.59C297.56,269.82,306,258.5,306,258.5Z" style="fill:#00458B"></path><path d="M325.67,261.15c.46.92,32.27,26.19,32.27,26.19l-18.44,22.9L306,283.68Z" style="fill:#263238"></path><path d="M325.31,257.84c.46.92,32.27,26.2,32.27,26.2l-18.44,22.89-33.5-26.56Z" style="fill:#00458B"></path><path d="M325.31,257.84c.46.92,32.27,26.2,32.27,26.2l-18.44,22.89-33.5-26.56Z" style="opacity:0.4"></path><path d="M325,255.66c.46.92,32.26,26.19,32.26,26.19l-18.43,22.9-33.51-26.57Z" style="fill:#455a64"></path><polygon points="347.75 274.26 348.17 277.19 355.77 283.71 357.26 281.85 347.75 274.26" style="fill:#fafafa"></polygon><path d="M331,272.06a35.8,35.8,0,0,1-3.83,4.71,34.21,34.21,0,0,1-4.21,4.37,37.79,37.79,0,0,1,3.82-4.71A35.51,35.51,0,0,1,331,272.06Z" style="fill:#263238"></path><path d="M328.59,272.45a14.94,14.94,0,0,1-2.53,3,14.67,14.67,0,0,1-2.91,2.59,15.14,15.14,0,0,1,2.53-3A14.44,14.44,0,0,1,328.59,272.45Z" style="fill:#263238"></path><path d="M329.51,301.74h0l8.7-7.26L334,284.42l-5.86,5.32a23.79,23.79,0,0,1-4.19.73,6.6,6.6,0,0,1-2.17-.16,10.32,10.32,0,0,1-2.56-.92.84.84,0,0,0-1.33.88c.27.71,2.16,2,4.81,2.44,2.39.37-.31,2.13-1.84,3.07a.64.64,0,0,0-.25.81C321.42,298.42,324.55,304.34,329.51,301.74Z" style="fill:#ffbe9d"></path><path d="M306.37,269a5.4,5.4,0,0,1-.44-1.1c-.26-.72-.59-1.78-.95-3.09a58.71,58.71,0,0,1-1.85-10.51,47.22,47.22,0,0,1,.35-10.66,28.35,28.35,0,0,1,.64-3.17,4.58,4.58,0,0,1,.35-1.13c.09,0-.3,1.66-.63,4.35a54.71,54.71,0,0,0-.19,10.57,69.49,69.49,0,0,0,1.69,10.46c.31,1.32.58,2.38.78,3.12A5,5,0,0,1,306.37,269Z" style="fill:#263238"></path><path d="M348.36,229.55s14.78,19.84,18.66,37.57c1.22,5.59-32.33,32.12-32.33,32.12L327,288.89l23-22.49s-10.87-19.63-11.43-25.79C337.9,233.69,343.76,228.2,348.36,229.55Z" style="fill:#00458B"></path><path d="M340.64,230a8.37,8.37,0,0,0-2.42,2.94,9.84,9.84,0,0,0-.9,4,16.24,16.24,0,0,0,.88,5,75.33,75.33,0,0,0,3.66,8.65c1.06,2.16,1.78,3.47,1.71,3.51a4.36,4.36,0,0,1-.61-.86c-.36-.58-.86-1.42-1.43-2.48a57.91,57.91,0,0,1-3.82-8.66,15.63,15.63,0,0,1-.87-5.17,9.58,9.58,0,0,1,1.05-4.17,7.11,7.11,0,0,1,1.83-2.25A2.51,2.51,0,0,1,340.64,230Z" style="fill:#263238"></path><path d="M356.53,266.53c-.06.15-1.57-.33-3.49-.38s-3.46.32-3.5.17a8.09,8.09,0,0,1,7,.21Z" style="fill:#263238"></path><path d="M355.11,269.05c-.12.11-1-.92-2.53-1.67s-2.84-.94-2.82-1.1a4.53,4.53,0,0,1,3.06.64A4.46,4.46,0,0,1,355.11,269.05Z" style="fill:#263238"></path><path d="M315.24,219.3s-6.39-1.06-7.72-9.4c-.66-4.15-.45-11-.1-16.51a8.81,8.81,0,0,1,9.72-8.21l14.47,1.53c1.51.16,1.48,1.28,1.45,2.8l.91,37.6a9.32,9.32,0,0,1-9.32,9.26h0a9.33,9.33,0,0,1-9.32-9.21l-.09-7.86" style="fill:#ffbe9d"></path><path d="M309.59,198.79a1.06,1.06,0,0,0,1,1.08,1,1,0,0,0,1.1-1,1.06,1.06,0,0,0-1-1.08A1,1,0,0,0,309.59,198.79Z" style="fill:#263238"></path><path d="M308.9,196.93c.13.14.94-.46,2.09-.46s2,.58,2.12.44-.07-.31-.44-.58a2.86,2.86,0,0,0-1.7-.52,2.77,2.77,0,0,0-1.66.53C309,196.61,308.83,196.87,308.9,196.93Z" style="fill:#263238"></path><path d="M320.84,198.79a1.06,1.06,0,0,0,1,1.08,1,1,0,0,0,1.1-1,1.06,1.06,0,0,0-1-1.08A1,1,0,0,0,320.84,198.79Z" style="fill:#263238"></path><path d="M320.21,197.14c.13.14,1-.46,2.1-.45s2,.58,2.11.43-.07-.31-.44-.58a3,3,0,0,0-1.69-.52,2.8,2.8,0,0,0-1.67.54C320.27,196.83,320.15,197.08,320.21,197.14Z" style="fill:#263238"></path><path d="M316,205.68a7.31,7.31,0,0,0-1.87-.34c-.29,0-.57-.09-.62-.29a1.52,1.52,0,0,1,.2-.87c.28-.71.56-1.45.87-2.24a37.44,37.44,0,0,0,1.95-5.85,38.78,38.78,0,0,0-2.42,5.68c-.29.79-.57,1.54-.83,2.26a1.7,1.7,0,0,0-.15,1.15.73.73,0,0,0,.48.43,1.93,1.93,0,0,0,.5.07A7.22,7.22,0,0,0,316,205.68Z" style="fill:#263238"></path><path d="M315.24,219.3a21.24,21.24,0,0,0,11.17-3s-2.71,5.73-11.06,5Z" style="fill:#eb996e"></path><path d="M316.52,208.45a2.11,2.11,0,0,1,1.86-.77,1.93,1.93,0,0,1,1.31.71,1.21,1.21,0,0,1,.09,1.37,1.4,1.4,0,0,1-1.51.38,4.43,4.43,0,0,1-1.47-.88,1.19,1.19,0,0,1-.33-.34.39.39,0,0,1,0-.43" style="fill:#eb996e"></path><path d="M319.42,206.48c-.19,0-.19,1.24-1.26,2.12s-2.4.75-2.41.93.3.24.86.25a3.05,3.05,0,0,0,2-.7,2.67,2.67,0,0,0,1-1.78C319.65,206.78,319.51,206.47,319.42,206.48Z" style="fill:#263238"></path><path d="M319.69,195.13c.12.31,1.27.16,2.62.33s2.44.53,2.62.25-.11-.43-.55-.74a4.41,4.41,0,0,0-1.95-.68,4.47,4.47,0,0,0-2,.24C319.89,194.73,319.64,195,319.69,195.13Z" style="fill:#263238"></path><path d="M309.32,194.58c.2.26,1,0,1.95,0s1.76.17,2-.1-.05-.4-.4-.64a2.83,2.83,0,0,0-3.14.09C309.34,194.18,309.23,194.45,309.32,194.58Z" style="fill:#263238"></path><path d="M304.32,186a6.2,6.2,0,0,1,4.51-4.7c1.47-.27,3,.16,4.47.07,1.23-.08,1.68-1.06,2.85-1.45,2-.64,3.46-2.81,7.68-2.36,1.12.12,2.57,1.43,3.6,2.91,1.62-.69,3.75.06,4.91.57,2.42,1,3.93,3.77,4.4,6.53a27.07,27.07,0,0,1-.3,8.37c-.18,1.27-.36,2.54-.53,3.81a6.56,6.56,0,0,1-.68,2.42l1.73,22.7c-7-.18-8.4-6-9.25-10-.74-3.51,1.21-7.09.9-10.66-.18-2.13-1.38-4.11-1.38-6.25a8.56,8.56,0,0,1,.3-2.07h0c-3.39-2.75-4.26-5-4.11-7.54a6.53,6.53,0,0,1-3.54,1.17c-1.78,0-3.64-.67-5.31,0a9.16,9.16,0,0,0-3,2.41,4.31,4.31,0,0,1-3.38,1.56,8.78,8.78,0,0,1-1.76-.62,2.14,2.14,0,0,0-1.8,0A14,14,0,0,1,304.32,186Z" style="fill:#263238"></path></g><g id="character-1--inject-27"><path d="M212.11,265a9.34,9.34,0,0,0-3.19-.09c2.18-.42,3.07-1,3-1.6-.08-1-5.16-.5-7.53-.22a47,47,0,0,0,6.5-1.12c1.12-.5-.2-1.15-1.45-1.38s-9.71-.61-12.11-.84a1.41,1.41,0,0,1-1.43-1.6c1-3.36-.08-6.49-.76-7.21s-1.89,0-1.74,1.06a12.89,12.89,0,0,1-.32,3.53,8.35,8.35,0,0,1-1,2.64c-.55.94-1.06,1.72-1.51,2.38l-33.12,26.6L152.7,283l-10.46,12.37,8.15,7.78a9.06,9.06,0,0,0,12.38.13l32.48-29.83,12.28-4.27c3.17-.88,4.42-1.47,4.22-2.05-.28-.78-.14-.49-6.13.29C205.62,267.42,214.16,266.23,212.11,265Z" style="fill:#ffbe9d"></path><path d="M202.93,267.7a15.53,15.53,0,0,0,4.13-.37,15.48,15.48,0,0,0,4-.91,31.37,31.37,0,0,0-8.17,1.28Z" style="fill:#eb996e"></path><path d="M202.32,265.38a17.93,17.93,0,0,0,4.42-.14,17.92,17.92,0,0,0,4.36-.69,17.36,17.36,0,0,0-4.42.14A17.92,17.92,0,0,0,202.32,265.38Z" style="fill:#eb996e"></path><path d="M202.15,263.19a15.44,15.44,0,0,0,4.19-.06,16.13,16.13,0,0,0,4.14-.62,16.23,16.23,0,0,0-4.19.07A16.52,16.52,0,0,0,202.15,263.19Z" style="fill:#eb996e"></path><path d="M129.56,374.17c.17,1.76,12.52,87.69,12.52,87.69l-4,0-15.32-86.37Z" style="fill:#455a64"></path><path d="M155.87,369.48c6.58-.21,3.48-9.87,3.32-20.38-.1-6.59-4.48-13.05-9.26-17.59a22.41,22.41,0,0,0-8.38-4.68,52.12,52.12,0,0,0-25.42-1.63S114.16,370.79,155.87,369.48Z" style="fill:#455a64"></path><path d="M198.74,405.79l-3.58-7.41L181.25,405l5.12,10.88.89-.35c3.94-1.62,19.93-8.48,22.12-10.48C211.83,402.83,198.74,405.79,198.74,405.79Z" style="fill:#455a64"></path><path d="M186,415.67l.25-.09.7-.29,2.59-1.09c2.17-.94,5.15-2.27,8.42-3.82s6.18-3,8.29-4.1l2.48-1.31.66-.37a.8.8,0,0,0,.23-.14l-.24.11-.69.34-2.5,1.25c-2.12,1.06-5.05,2.5-8.31,4s-6.24,2.9-8.4,3.87L187,415.23l-.7.32C186.11,415.62,186,415.66,186,415.67Z" style="fill:#263238"></path><path d="M205,407.14a5.58,5.58,0,0,1-.1-1.43,6,6,0,0,1,.4-1.38,2.09,2.09,0,0,0-.59,1.36A2,2,0,0,0,205,407.14Z" style="fill:#263238"></path><path d="M199.86,407s.13-.33.19-.74a1.69,1.69,0,0,0,0-.77c-.06,0-.14.33-.19.74A1.69,1.69,0,0,0,199.86,407Z" style="fill:#263238"></path><path d="M198.45,407c.05,0,.2-.23.34-.56s.21-.61.16-.63-.2.23-.34.56S198.4,406.93,198.45,407Z" style="fill:#263238"></path><path d="M197.11,406s.37-.06.77-.25.72-.37.7-.42-.37.07-.77.25A2,2,0,0,0,197.11,406Z" style="fill:#263238"></path><path d="M196.43,405.16a1.55,1.55,0,0,0,.92-.15,1.63,1.63,0,0,0,.79-.5c0-.05-.39.15-.86.33A5.26,5.26,0,0,0,196.43,405.16Z" style="fill:#263238"></path><path d="M199.76,405.57a2.88,2.88,0,0,0,.89-.43,5.48,5.48,0,0,0,.85-.66,3.44,3.44,0,0,0,.44-.48.57.57,0,0,0,.09-.39.38.38,0,0,0-.31-.29,1.82,1.82,0,0,0-1.8,1.44,1.84,1.84,0,0,0,0,.74.54.54,0,0,0,.1.25,2.57,2.57,0,0,1,0-1,1.82,1.82,0,0,1,.53-.86,1.54,1.54,0,0,1,1.1-.43c.19,0,.21.23.1.4a2.43,2.43,0,0,1-.4.45,5.73,5.73,0,0,1-.81.68C200.08,405.38,199.74,405.54,199.76,405.57Z" style="fill:#263238"></path><path d="M200,405.51a1,1,0,0,0-.19-.67,1.62,1.62,0,0,0-.56-.54,1,1,0,0,0-1-.1.4.4,0,0,0-.08.54,1.17,1.17,0,0,0,.34.33,3.07,3.07,0,0,0,.68.34,1.49,1.49,0,0,0,.69.12s-.26-.08-.64-.25a3.12,3.12,0,0,1-.63-.35c-.21-.13-.46-.43-.25-.58a.86.86,0,0,1,.77.1,1.74,1.74,0,0,1,.53.46A3,3,0,0,1,200,405.51Z" style="fill:#263238"></path><path d="M184.5,411.72s.38-.22,1.05-.45a5,5,0,0,1,2.68-.14,4.89,4.89,0,0,1,2.34,1.32c.5.49.71.88.74.86a1,1,0,0,0-.13-.28,4.54,4.54,0,0,0-.51-.68,4.7,4.7,0,0,0-5.17-1.2,3.92,3.92,0,0,0-.75.38A1.16,1.16,0,0,0,184.5,411.72Z" style="fill:#263238"></path><path d="M183.19,405.25a28.63,28.63,0,0,0,1.24,2.91,26,26,0,0,0,1.41,2.84,28.63,28.63,0,0,0-1.24-2.91A26,26,0,0,0,183.19,405.25Z" style="fill:#263238"></path><path d="M192.47,411.19a8.22,8.22,0,0,0,2.13-.76,8.7,8.7,0,0,0,2-1.13c0-.05-.91.44-2,1S192.46,411.14,192.47,411.19Z" style="fill:#263238"></path><path d="M189.74,412.49c0,.05.17.15.36.32s.33.32.38.3,0-.26-.26-.44S189.76,412.44,189.74,412.49Z" style="fill:#263238"></path><path d="M188.11,411.7s.14.15.35.22.4.11.42.06-.14-.15-.35-.23S188.13,411.65,188.11,411.7Z" style="fill:#263238"></path><path d="M186.36,411.81s.22-.05.45-.07.44,0,.46,0-.18-.18-.48-.15S186.33,411.77,186.36,411.81Z" style="fill:#263238"></path><path d="M185.18,412c0,.05.12.09.26.08s.24-.06.24-.11-.12-.09-.26-.08S185.18,412,185.18,412Z" style="fill:#263238"></path><path d="M158.76,457.72l-.15-8.22-15.41.18.09,12,1,.05c4.25.19,21.64.65,24.47-.24C171.88,460.52,158.76,457.72,158.76,457.72Z" style="fill:#455a64"></path><path d="M143.07,461.36l.26,0,.76,0,2.81.09c2.36.06,5.63.1,9.24.06s6.88-.14,9.25-.25l2.8-.14.76-.06a.9.9,0,0,0,.26,0H169l-.77,0-2.8.09c-2.36.07-5.63.16-9.24.2s-6.88,0-9.24,0l-2.8,0h-1Z" style="fill:#263238"></path><path d="M163.83,461.55a6.32,6.32,0,0,1,.51-1.34,6.47,6.47,0,0,1,.94-1.08,2,2,0,0,0-1.1,1A2,2,0,0,0,163.83,461.55Z" style="fill:#263238"></path><path d="M159.26,459.3s.26-.24.48-.6a1.69,1.69,0,0,0,.32-.69c-.05,0-.26.24-.48.59S159.21,459.27,159.26,459.3Z" style="fill:#263238"></path><path d="M158,458.65s.28-.12.54-.37.45-.46.41-.5-.27.13-.53.37S158,458.62,158,458.65Z" style="fill:#263238"></path><path d="M157.2,457.21a1.86,1.86,0,0,0,.8.09,1.89,1.89,0,0,0,.81-.09,1.8,1.8,0,0,0-.81-.1A1.77,1.77,0,0,0,157.2,457.21Z" style="fill:#263238"></path><path d="M156.92,456.19a1.66,1.66,0,0,0,.9.25,1.55,1.55,0,0,0,.92-.14,5.07,5.07,0,0,0-.91-.05A4,4,0,0,0,156.92,456.19Z" style="fill:#263238"></path><path d="M159.77,458a2.91,2.91,0,0,0,1,0,5.69,5.69,0,0,0,1.05-.24,3,3,0,0,0,.6-.26.56.56,0,0,0,.24-.31.37.37,0,0,0-.16-.39,1.8,1.8,0,0,0-2.23.55,1.72,1.72,0,0,0-.32.67.52.52,0,0,0,0,.27,2.59,2.59,0,0,1,.44-.85,1.73,1.73,0,0,1,.84-.56,1.56,1.56,0,0,1,1.18.06c.16.12.1.31-.08.41a3.43,3.43,0,0,1-.55.25,6.23,6.23,0,0,1-1,.27C160.14,457.91,159.76,457.92,159.77,458Z" style="fill:#263238"></path><path d="M160,458a1,1,0,0,0,.11-.69,1.63,1.63,0,0,0-.28-.72,1,1,0,0,0-.83-.5.39.39,0,0,0-.3.46,1.16,1.16,0,0,0,.17.44,2.8,2.8,0,0,0,.48.6,1.34,1.34,0,0,0,.57.39s-.2-.18-.48-.49a4,4,0,0,1-.42-.59c-.14-.2-.23-.58,0-.63s.51.22.66.42a1.58,1.58,0,0,1,.29.64A3.17,3.17,0,0,1,160,458Z" style="fill:#263238"></path><path d="M143.34,457.14s.44,0,1.13,0a4.86,4.86,0,0,1,4.08,3.17c.24.66.27,1.1.3,1.1a.83.83,0,0,0,0-.31,4.06,4.06,0,0,0-.18-.83,4.74,4.74,0,0,0-1.59-2.28,4.69,4.69,0,0,0-2.59-1,4.26,4.26,0,0,0-.85,0A.84.84,0,0,0,143.34,457.14Z" style="fill:#263238"></path><path d="M144.86,450.71a29.24,29.24,0,0,0-.1,3.17,27.92,27.92,0,0,0,.09,3.17,26.47,26.47,0,0,0,.1-3.17A27.92,27.92,0,0,0,144.86,450.71Z" style="fill:#263238"></path><path d="M150.8,460a8.77,8.77,0,0,0,2.25.2,9.33,9.33,0,0,0,2.25-.2c0-.06-1,0-2.25,0S150.8,460,150.8,460Z" style="fill:#263238"></path><path d="M147.78,460s.08.21.19.44.16.44.21.43.08-.24,0-.51S147.81,460,147.78,460Z" style="fill:#263238"></path><path d="M146.62,458.63s.07.19.23.35.32.26.36.23-.07-.2-.23-.36S146.66,458.59,146.62,458.63Z" style="fill:#263238"></path><path d="M145,458c0,.05.21.05.44.12s.39.2.43.16-.09-.24-.37-.33S145,458,145,458Z" style="fill:#263238"></path><path d="M143.83,457.71c0,.05.07.12.19.17s.25.05.27,0-.07-.13-.2-.17S143.84,457.66,143.83,457.71Z" style="fill:#263238"></path><path d="M95.47,375.66l27.28-.15c2.76,0,5.73-.08,8-1.59a7.73,7.73,0,0,0,3.06-7.62,14.26,14.26,0,0,0-4.19-7.46c-4.48-4.63-10.43-7.4-16.85-9.28L92.33,285c-3.94-.34-7.94-.63-11.81.16s-7.66,2.83-9.71,6.21S68.71,299,68.72,303q.11,24,.2,48.09c-.15,9.85.82,17.85,8.13,21.7a21.76,21.76,0,0,0,4.09,1.62h0c-.15,1.75-11.78,87.79-11.78,87.79l4,0,9.4-55.29,23.41-13.16,24.31,11,.62-1.57-23-10.54,18.74-10.53-.84-1.49-19.9,11.1L86.84,382.9l1.26-7.39C90.55,375.68,93,375.68,95.47,375.66Zm8.69,17.12-21,11.71,3.36-19.72Z" style="fill:#455a64"></path><path d="M83.2,278.36,90.14,313,88.9,339l49.49-1.6-4.68-28.9,0-18.82,6.39,8.09L153.58,282,137.71,265.1h0A27.46,27.46,0,0,0,127,258.2a21.67,21.67,0,0,0-6.68-1.28h0a26.89,26.89,0,0,1-16.15,0l-2.71.3-.21,0a20.6,20.6,0,0,0-18,19.39Z" style="fill:#e0e0e0"></path><path d="M133.56,289.9a54.81,54.81,0,0,1-.26-7.49,55,55,0,0,1,.26-7.5,55,55,0,0,1,.26,7.5A54.81,54.81,0,0,1,133.56,289.9Z" style="fill:#263238"></path><path d="M101.5,257.23s-19.16.15-21.53,20.39l-1.19,15,17.37-.34Z" style="fill:#e0e0e0"></path><path d="M78.78,292.65a7.84,7.84,0,0,1,1.3-.1l3.63-.14,12.64-.35-.24.23c.19-2.89.39-6.05.6-9.35.23-3.71.51-7.26.69-10.46a17.7,17.7,0,0,0-.31-4.5,9.15,9.15,0,0,0-1.58-3.53,5.72,5.72,0,0,0-4.86-2.37,5.89,5.89,0,0,0-2,.53,1.65,1.65,0,0,1,.46-.3,4,4,0,0,1,1.53-.43,5.44,5.44,0,0,1,2.5.34,6.27,6.27,0,0,1,2.67,2,9.4,9.4,0,0,1,1.71,3.66,17.71,17.71,0,0,1,.37,4.61c-.16,3.24-.42,6.77-.65,10.48-.22,3.3-.44,6.46-.63,9.35l0,.23h-.22l-12.65.16H80.08A7.28,7.28,0,0,1,78.78,292.65Z" style="fill:#263238"></path><path d="M108.46,269.74a26.8,26.8,0,0,1-3.92-2.69,27.85,27.85,0,0,1-3.74-2.93,18.37,18.37,0,0,1,4,2.51A18.74,18.74,0,0,1,108.46,269.74Z" style="fill:#00458B"></path><path d="M108.29,276.32a10.92,10.92,0,0,1-2.25,2.51,11.13,11.13,0,0,1-2.61,2.13,11.15,11.15,0,0,1,2.25-2.51A11.13,11.13,0,0,1,108.29,276.32Z" style="fill:#00458B"></path><path d="M118.9,282a8.37,8.37,0,0,1-1.52-2.48,8.21,8.21,0,0,1-1-2.7A16,16,0,0,1,118.9,282Z" style="fill:#00458B"></path><path d="M130.16,269.39a8.33,8.33,0,0,1-2.41,1.68,8.15,8.15,0,0,1-2.66,1.23,8.23,8.23,0,0,1,2.4-1.68A8.69,8.69,0,0,1,130.16,269.39Z" style="fill:#00458B"></path><path d="M127.79,264.38a10.48,10.48,0,0,1-3.24-.49,10.55,10.55,0,0,1-3.11-1,10.25,10.25,0,0,1,3.23.5A10.38,10.38,0,0,1,127.79,264.38Z" style="fill:#00458B"></path><path d="M140.69,277.94a6.22,6.22,0,0,1,.29-3,6.39,6.39,0,0,1,1.26-2.78,15.33,15.33,0,0,1-.76,2.91A18.26,18.26,0,0,1,140.69,277.94Z" style="fill:#00458B"></path><path d="M104.44,298.11a9.43,9.43,0,0,1-2.16-2.24,9.56,9.56,0,0,1-1.77-2.57,18.46,18.46,0,0,1,3.93,4.81Z" style="fill:#00458B"></path><path d="M113.82,291.19c-.13.07-.73-.77-1.34-1.88a5.35,5.35,0,0,1-.89-2.13c.13-.07.73.77,1.34,1.88S114,291.12,113.82,291.19Z" style="fill:#00458B"></path><path d="M130.32,306.2a21.1,21.1,0,0,1-1.88,2.19,22.67,22.67,0,0,1-1.79,2.25,5.17,5.17,0,0,1,1.39-2.59A5.23,5.23,0,0,1,130.32,306.2Z" style="fill:#00458B"></path><path d="M144.66,282.29c.06.13-.65.57-1.64.77s-1.8.08-1.8-.06.77-.26,1.7-.45S144.6,282.16,144.66,282.29Z" style="fill:#00458B"></path><path d="M90.28,271.24A6.73,6.73,0,0,1,91.51,269c.8-1.16,1.54-2,1.66-2a6.4,6.4,0,0,1-1.23,2.25C91.15,270.44,90.4,271.32,90.28,271.24Z" style="fill:#00458B"></path><path d="M86,274.16c-.13.06-.66-.83-1.18-2a5.31,5.31,0,0,1-.72-2.2c.13-.06.67.83,1.19,2A5.2,5.2,0,0,1,86,274.16Z" style="fill:#00458B"></path><path d="M88.51,281a4.72,4.72,0,0,1-2.11-.39c-1.12-.34-2-.74-2-.88a4.7,4.7,0,0,1,2.1.39C87.67,280.43,88.55,280.82,88.51,281Z" style="fill:#00458B"></path><path d="M93.79,279.33a6.35,6.35,0,0,1,.06-2.5,6.26,6.26,0,0,1,.58-2.44,6,6,0,0,1-.06,2.51A6.25,6.25,0,0,1,93.79,279.33Z" style="fill:#00458B"></path><path d="M88.79,288.39a6.61,6.61,0,0,1-2.37-1c-1.23-.67-2.18-1.32-2.11-1.45a6.32,6.32,0,0,1,2.36,1C87.91,287.61,88.86,288.26,88.79,288.39Z" style="fill:#00458B"></path><path d="M115.62,267.42c-.15,0-.22-.82-.33-1.82s-.19-1.81-.05-1.85.47.75.57,1.8S115.76,267.43,115.62,267.42Z" style="fill:#00458B"></path><path d="M128.66,283.27c-.12.08-.79-.8-1.49-1.95a6.09,6.09,0,0,1-1-2.23c.13-.07.8.8,1.5,2A5.77,5.77,0,0,1,128.66,283.27Z" style="fill:#00458B"></path><path d="M109.86,332.68a7.34,7.34,0,0,1-2.2-1.64c-1.12-1-2-1.93-1.86-2a7.46,7.46,0,0,1,2.21,1.65C109.13,331.67,110,332.58,109.86,332.68Z" style="fill:#00458B"></path><path d="M119.15,327.3a12.91,12.91,0,0,1-4.6,2.41,6.74,6.74,0,0,1,2.18-1.43A6.6,6.6,0,0,1,119.15,327.3Z" style="fill:#00458B"></path><path d="M129.07,329.64c-.1.11-.92-.48-1.84-1.32s-1.58-1.61-1.48-1.71.92.49,1.83,1.32S129.17,329.54,129.07,329.64Z" style="fill:#00458B"></path><path d="M119.78,313c.11.1-.3.7-.91,1.35s-1.2,1.1-1.3,1,.31-.7.92-1.35S119.68,312.85,119.78,313Z" style="fill:#00458B"></path><path d="M96.76,303.42c-.15,0-.24-.88-.21-1.95s.17-1.93.31-1.93.24.88.21,1.95S96.9,303.42,96.76,303.42Z" style="fill:#00458B"></path><path d="M100.85,230c.1-1.32-1.08-3.14-2.17-4.19a4.3,4.3,0,0,1-1.2-4.59c.44-1.63,1.47-1.51,1.88-2.47a7,7,0,0,0,.24-2.29,4.78,4.78,0,0,1,5.7-4.06,6.62,6.62,0,0,1,12.21-1.27,5.09,5.09,0,0,1,7.42,4.13,3.71,3.71,0,0,1,4.82.73,4.56,4.56,0,0,1,.34,5,6,6,0,0,1-4.32,2.85,8.77,8.77,0,0,1-5.19-1,16.46,16.46,0,0,1-4.26-3.21" style="fill:#263238"></path><path d="M114.91,214.5a12.51,12.51,0,0,1,12.51,12.28c.12,6.21.16,12.83-.15,14.75-1.24,7.81-7.22,8.8-7.22,8.8s-.1,4.89-.12,9.54c0,4.43-3.86,8.1-8.6,8.2h0a8.1,8.1,0,0,1-8.57-7.73l-.36-33.19a12.51,12.51,0,0,1,12.51-12.65Z" style="fill:#ffbe9d"></path><path d="M125.77,230.5a1,1,0,0,1-1,1,1,1,0,0,1-1-.9,1,1,0,0,1,1-1A1,1,0,0,1,125.77,230.5Z" style="fill:#263238"></path><path d="M126,229.38c-.13.13-.89-.43-2-.43s-1.86.54-2,.41.07-.3.41-.55a2.78,2.78,0,0,1,1.59-.49,2.62,2.62,0,0,1,1.56.51C125.94,229.08,126.05,229.32,126,229.38Z" style="fill:#263238"></path><path d="M115,230.5a1,1,0,0,1-1,1,1,1,0,0,1-1-.9,1,1,0,0,1,1-1A1,1,0,0,1,115,230.5Z" style="fill:#263238"></path><path d="M115.39,229.58c-.13.13-.89-.43-2-.43s-1.87.54-2,.41.07-.29.42-.54a2.68,2.68,0,0,1,1.59-.49,2.65,2.65,0,0,1,1.56.5C115.34,229.28,115.45,229.52,115.39,229.58Z" style="fill:#263238"></path><path d="M119.3,237.57a7.65,7.65,0,0,1,1.75-.31c.28,0,.54-.09.59-.27a1.5,1.5,0,0,0-.19-.82c-.26-.67-.53-1.36-.81-2.1a35.93,35.93,0,0,1-1.83-5.48,36.88,36.88,0,0,1,2.26,5.32c.28.74.54,1.44.78,2.11a1.57,1.57,0,0,1,.15,1.08.71.71,0,0,1-.46.41,2.08,2.08,0,0,1-.46.06A7,7,0,0,1,119.3,237.57Z" style="fill:#263238"></path><path d="M120.05,250.33a19.89,19.89,0,0,1-10.47-2.79s2.54,5.37,10.36,4.64Z" style="fill:#eb996e"></path><path d="M116.13,238.32c.17,0,.18,1.16,1.18,2s2.25.7,2.25.87-.27.22-.8.24a2.93,2.93,0,0,1-1.88-.66,2.56,2.56,0,0,1-.92-1.67C115.92,238.6,116.05,238.31,116.13,238.32Z" style="fill:#263238"></path><path d="M115.67,225.35c-.11.3-1.19.16-2.45.31s-2.29.5-2.46.23c-.07-.12.11-.4.52-.68a4.21,4.21,0,0,1,1.82-.64,4.14,4.14,0,0,1,1.92.23C115.48,225,115.71,225.21,115.67,225.35Z" style="fill:#263238"></path><path d="M125.59,226.26c-.19.24-.93,0-1.83,0s-1.64.16-1.82-.1,0-.37.37-.6a2.65,2.65,0,0,1,2.94.09C125.57,225.89,125.67,226.14,125.59,226.26Z" style="fill:#263238"></path><path d="M103.39,229.89c-.11,0-4.51-1.54-4.56,3s4.54,3.67,4.55,3.54S103.39,229.89,103.39,229.89Z" style="fill:#ffbe9d"></path><path d="M102,234.7s-.08.05-.21.11a.81.81,0,0,1-.6,0,2,2,0,0,1-.89-1.78,2.75,2.75,0,0,1,.24-1.13.91.91,0,0,1,.6-.6.4.4,0,0,1,.47.22c.06.13,0,.22,0,.23s.1-.08.07-.27a.47.47,0,0,0-.18-.28.64.64,0,0,0-.44-.13,1.17,1.17,0,0,0-.84.7,2.73,2.73,0,0,0-.28,1.27,2.07,2.07,0,0,0,1.13,2,.87.87,0,0,0,.73-.11C102,234.81,102,234.7,102,234.7Z" style="fill:#eb996e"></path><path d="M128.37,222.23s-4,2-9.29-.67c-3.44-1.72-7.45-2.56-8.34-1.86s-1.07,4.24-4.48,5.27c0,0,.23,6.78-2.47,6.53s-2.68-12.11-2.68-12.11l8-5.89,8.67-.69,7,2.85,3.87,2.92Z" style="fill:#263238"></path><path d="M141.24,289.56c-1.18-.86-5.84,5.52-5.62,3.55s6.6-7.11,5.34-8c-1.64-1.1-6.41,5.67-6.86,6.21s-1.22-.1-.8-.57c.62-.67,6.9-7.89,5.3-9-.89-.6-1.8,1.13-1.8,1.13s-5.39,7.2-6.13,6.66,2.28-4.89,3.4-6.28.92-2.48-.09-2.48c-.68,0-4.21,4.17-5.29,5.57s-4,5.3-4.07,2.18c0-.05,0-.09,0-.14,0-3.07-1-5.43-1.81-5.91a1.07,1.07,0,0,0-1.54,1.14,1.14,1.14,0,0,0,.11.43c0,.06,0,.15.08.22a15.63,15.63,0,0,1,.37,3.15,8.45,8.45,0,0,1-.38,2.78c-.33,1-.65,1.91-.93,2.64l-.47.56-26.1,14.76h0l.71-15.1v-.6l-15.37.15L79,312.75a25.27,25.27,0,0,0,.59,5.94c.66,3,1.73,5.71,4.29,7.42,5.84,3.89,15.26,2.71,20.46-2L126,304.41l4.49-4.09h0a98.55,98.55,0,0,0,8.25-6.87C142,290.18,141.67,289.88,141.24,289.56Z" style="fill:#ffbe9d"></path><path d="M91.85,342.24s70.6-20.59,77-17.58,32.79,76.87,32.79,76.87l-20.26,9.85-25.77-63s-50.16,19.52-58.2,17.87S91.85,342.24,91.85,342.24Z" style="fill:#263238"></path><path d="M121.65,340.15c1,.33,39.71,13,42.4,18s-1.31,96.58-1.31,96.58l-24.51,1,1.13-88.36L97,366.34Z" style="fill:#263238"></path><path d="M96.76,366.33a2.92,2.92,0,0,0,.63-.07l1.77-.32c1.53-.28,3.75-.72,6.48-1.31,5.45-1.16,13-2.91,21.16-5.27,4.09-1.19,8-2.43,11.45-3.63s6.59-2.4,9.16-3.5c1.3-.53,2.45-1.05,3.46-1.51s1.87-.86,2.57-1.21l1.6-.81a3.36,3.36,0,0,0,.55-.31,2.57,2.57,0,0,0-.59.22l-1.64.72q-1.06.5-2.61,1.14c-1,.43-2.17.93-3.47,1.43-2.58,1.06-5.7,2.18-9.18,3.4s-7.35,2.4-11.44,3.59c-8.17,2.35-15.66,4.16-21.1,5.4l-6.44,1.46-1.75.41A5,5,0,0,0,96.76,366.33Z" style="fill:#455a64"></path><path d="M164.63,378a5.09,5.09,0,0,0,.2-1.24q.13-1.36.36-3.42c.13-1.48.29-3.19.46-5.08a23.13,23.13,0,0,0,0-6.28,9.78,9.78,0,0,0-3.17-5.43,16.53,16.53,0,0,0-4.33-2.77c-1.33-.61-2.44-1-3.21-1.26a6,6,0,0,0-1.22-.35c0,.09,1.68.68,4.28,1.93a16.67,16.67,0,0,1,4.17,2.79,9.4,9.4,0,0,1,3,5.18,23.57,23.57,0,0,1,0,6.16c-.14,1.88-.26,3.6-.36,5.08s-.15,2.52-.2,3.43A6.41,6.41,0,0,0,164.63,378Z" style="fill:#455a64"></path><path d="M110.62,372.28c6.58-.43,3.49-9.86,3.32-20.37-.1-6.59-4.47-13.05-9.25-17.59a22.57,22.57,0,0,0-8.38-4.68A52,52,0,0,0,70.89,328S58.45,375.72,110.62,372.28Z" style="fill:#455a64"></path><polygon points="117.57 317.51 190.84 317.51 201.67 280.83 150.12 281.18 138.15 314.78 117.57 315.09 117.57 317.51" style="fill:#455a64"></polygon><circle cx="171.71" cy="299.89" r="2.87" style="fill:#fff"></circle></g><g id="desk-1--inject-27"><path d="M26.47,317.55v6.71H44.3V462.17h7.34V333.6H268.69V462.1H276V324.26h14.44v-6.71Zm25.17,14.21v-7.5H268.69v7.5Z" style="fill:#263238"></path><rect x="243.87" y="265.03" width="5.4" height="40.45" transform="translate(-38.68 531.83) rotate(-90)" style="fill:#455a64"></rect><path d="M231.86,282.78a12.93,12.93,0,0,1,0,5.06,12.93,12.93,0,0,1,0-5.06Z" style="fill:#fafafa"></path><path d="M231,282.67a12.93,12.93,0,0,1,0,5.06,12.44,12.44,0,0,1,0-5.06Z" style="fill:#fafafa"></path><path d="M263.67,282.78a12.93,12.93,0,0,1,0,5.06,12.93,12.93,0,0,1,0-5.06Z" style="fill:#fafafa"></path><path d="M262.79,282.67a12.93,12.93,0,0,1,0,5.06,12.93,12.93,0,0,1,0-5.06Z" style="fill:#fafafa"></path><path d="M257.51,285.42c0,.14-4.64.25-10.35.25s-10.35-.11-10.35-.25,4.63-.26,10.35-.26S257.51,285.28,257.51,285.42Z" style="fill:#fafafa"></path><rect x="240.85" y="291.9" width="10.81" height="40.45" transform="translate(-65.87 558.37) rotate(-90)" style="fill:#00458B"></rect><path d="M267,314.49a1,1,0,0,1-.22.12c-.14.08-.37.18-.67.31a11.51,11.51,0,0,1-2.74.78,7,7,0,0,1-4.45-.63,6,6,0,0,1-2.12-1.91,4.47,4.47,0,0,1-.73-3.12,3.21,3.21,0,0,1,.74-1.61,2.16,2.16,0,0,1,1.71-.77,2.46,2.46,0,0,1,1.71.92,3.35,3.35,0,0,1,.78,1.85,4.89,4.89,0,0,1-1.39,3.83,6.19,6.19,0,0,1-3.89,1.9,10.29,10.29,0,0,1-4.51-.56,8.31,8.31,0,0,1-3.94-2.65,4.34,4.34,0,0,1-.92-2.34,3,3,0,0,1,.86-2.42,2,2,0,0,1,1.27-.56,2.35,2.35,0,0,1,1.32.37,3.55,3.55,0,0,1,1.49,2.18,5.1,5.1,0,0,1-1.6,4.77,7.94,7.94,0,0,1-4.55,1.85,11.18,11.18,0,0,1-4.72-.47,6.45,6.45,0,0,1-3.59-2.79,4.75,4.75,0,0,1-.45-4.29,2.25,2.25,0,0,1,1.65-1.4,2.65,2.65,0,0,1,2,.49,3.41,3.41,0,0,1,1,3.65,6.45,6.45,0,0,1-2,2.87,9.16,9.16,0,0,1-5.55,2.15,8.77,8.77,0,0,1-4.39-1,9,9,0,0,1-2.3-1.69,6.6,6.6,0,0,1-.48-.57c-.1-.13-.15-.2-.14-.21a10.35,10.35,0,0,0,3,2.3,8.82,8.82,0,0,0,4.3.89,8.92,8.92,0,0,0,5.32-2.15,5.93,5.93,0,0,0,1.9-2.71,3,3,0,0,0-.84-3.19,2.19,2.19,0,0,0-1.7-.4,1.8,1.8,0,0,0-1.32,1.15,4.33,4.33,0,0,0,.44,3.87,6,6,0,0,0,3.34,2.57,10.66,10.66,0,0,0,4.51.43,7.39,7.39,0,0,0,4.27-1.73,4.59,4.59,0,0,0,1.44-4.27,3,3,0,0,0-1.26-1.86,1.54,1.54,0,0,0-2,.12,2.49,2.49,0,0,0-.71,2,3.87,3.87,0,0,0,.82,2.07,7.9,7.9,0,0,0,3.7,2.49,10,10,0,0,0,4.3.55,5.65,5.65,0,0,0,3.61-1.74,4.5,4.5,0,0,0,1.31-3.48,2.59,2.59,0,0,0-2.1-2.42,1.78,1.78,0,0,0-1.41.63,3,3,0,0,0-.67,1.42,4.19,4.19,0,0,0,.65,2.88,5.66,5.66,0,0,0,2,1.84,7,7,0,0,0,4.29.69,12.63,12.63,0,0,0,2.73-.69A9.66,9.66,0,0,1,267,314.49Z" style="fill:#fafafa"></path><rect x="238.68" y="278.91" width="18.75" height="36.84" transform="translate(-49.27 545.38) rotate(-90)" style="fill:#263238"></rect><path d="M235.76,288.59a82.16,82.16,0,0,1,.25,9.08,81.9,81.9,0,0,1-.25,9.07,80.32,80.32,0,0,1-.26-9.07A80.58,80.58,0,0,1,235.76,288.59Z" style="fill:#e0e0e0"></path><path d="M238.55,288.36a78.38,78.38,0,0,1,.26,9,78.38,78.38,0,0,1-.26,9,79.92,79.92,0,0,1-.25-9A79.92,79.92,0,0,1,238.55,288.36Z" style="fill:#e0e0e0"></path><path d="M262.31,287.76a88.5,88.5,0,0,1,.25,9.43,88.77,88.77,0,0,1-.25,9.44,88.77,88.77,0,0,1-.25-9.44A88.5,88.5,0,0,1,262.31,287.76Z" style="fill:#e0e0e0"></path><path d="M259,288a84.17,84.17,0,0,1,.25,9.19,84,84,0,0,1-.25,9.19,82.4,82.4,0,0,1-.26-9.19A82.55,82.55,0,0,1,259,288Z" style="fill:#e0e0e0"></path></g><g id="Pictures--inject-27"><rect x="361.01" y="78.69" width="54.11" height="122.73" style="fill:#263238"></rect><rect x="363.53" y="81.45" width="49.08" height="117.22" style="fill:#fafafa"></rect><rect x="369.86" y="89.46" width="36.11" height="101.59" style="fill:#455a64"></rect><rect x="427.84" y="78.69" width="54.11" height="122.73" style="fill:#263238"></rect><rect x="430.36" y="81.45" width="49.08" height="117.22" style="fill:#fafafa"></rect><rect x="436.69" y="89.46" width="36.11" height="101.59" style="fill:#263238"></rect><rect x="41.99" y="86.18" width="54.11" height="122.73" style="fill:#263238"></rect><rect x="44.51" y="88.93" width="49.08" height="117.22" style="fill:#fafafa"></rect><rect x="50.84" y="96.95" width="36.11" height="101.59" style="fill:#00458B"></rect></g></svg>
